<svg width="269" height="91" viewBox="0 0 269 91" fill="none" xmlns="http://www.w3.org/2000/svg">
<g filter="url(#filter0_d_1176_53)">
<rect x="9" y="7" width="251" height="73" rx="8" fill="white" shape-rendering="crispEdges"/>
<rect x="9" y="7" width="251" height="73" rx="8" stroke="white" stroke-opacity="0.1" shape-rendering="crispEdges"/>
<g opacity="0.8">
<rect x="25" y="15" width="32" height="32" rx="16" fill="#065DA7"/>
<path d="M46.5 25.5H35.5C35.2348 25.5 34.9804 25.6054 34.7929 25.7929C34.6054 25.9804 34.5 26.2348 34.5 26.5V35.5C34.5 35.7652 34.6054 36.0196 34.7929 36.2071C34.9804 36.3946 35.2348 36.5 35.5 36.5H46.5C46.7652 36.5 47.0196 36.3946 47.2071 36.2071C47.3946 36.0196 47.5 35.7652 47.5 35.5V26.5C47.5 26.2348 47.3946 25.9804 47.2071 25.7929C47.0196 25.6054 46.7652 25.5 46.5 25.5ZM41 33C40.2046 32.9992 39.442 32.6828 38.8796 32.1204C38.3172 31.558 38.0008 30.7954 38 30C38 29.8674 38.0527 29.7402 38.1464 29.6464C38.2402 29.5527 38.3674 29.5 38.5 29.5C38.6326 29.5 38.7598 29.5527 38.8536 29.6464C38.9473 29.7402 39 29.8674 39 30C39 30.5304 39.2107 31.0391 39.5858 31.4142C39.9609 31.7893 40.4696 32 41 32C41.5304 32 42.0391 31.7893 42.4142 31.4142C42.7893 31.0391 43 30.5304 43 30C43 29.8674 43.0527 29.7402 43.1464 29.6464C43.2402 29.5527 43.3674 29.5 43.5 29.5C43.6326 29.5 43.7598 29.5527 43.8536 29.6464C43.9473 29.7402 44 29.8674 44 30C43.9992 30.7954 43.6828 31.558 43.1204 32.1204C42.558 32.6828 41.7954 32.9992 41 33ZM35.5 27.5V26.5H46.5V27.5H35.5Z" fill="white"/>
</g>
<path d="M75.82 27V19.632H73.336V18.6H79.564V19.632H77.092V27H75.82ZM80.7663 27V18.36H82.0383V22.008C82.2383 21.664 82.5143 21.396 82.8663 21.204C83.2263 21.004 83.6223 20.904 84.0543 20.904C84.7663 20.904 85.3263 21.128 85.7343 21.576C86.1423 22.024 86.3463 22.692 86.3463 23.58V27H85.0863V23.712C85.0863 22.56 84.6263 21.984 83.7063 21.984C83.2263 21.984 82.8263 22.152 82.5063 22.488C82.1943 22.824 82.0383 23.304 82.0383 23.928V27H80.7663ZM87.9045 27V21.048H89.0445L89.1525 22.176C89.3605 21.784 89.6485 21.476 90.0165 21.252C90.3925 21.02 90.8445 20.904 91.3725 20.904V22.236H91.0245C90.6725 22.236 90.3565 22.296 90.0765 22.416C89.8045 22.528 89.5845 22.724 89.4165 23.004C89.2565 23.276 89.1765 23.656 89.1765 24.144V27H87.9045ZM93.2431 19.92C93.0031 19.92 92.8031 19.848 92.6431 19.704C92.4911 19.552 92.4151 19.364 92.4151 19.14C92.4151 18.916 92.4911 18.732 92.6431 18.588C92.8031 18.436 93.0031 18.36 93.2431 18.36C93.4831 18.36 93.6791 18.436 93.8311 18.588C93.9911 18.732 94.0711 18.916 94.0711 19.14C94.0711 19.364 93.9911 19.552 93.8311 19.704C93.6791 19.848 93.4831 19.92 93.2431 19.92ZM92.6071 27V21.048H93.8791V27H92.6071ZM95.6182 27V21.048H96.7462L96.8422 22.092C97.0262 21.724 97.2942 21.436 97.6462 21.228C98.0062 21.012 98.4182 20.904 98.8822 20.904C99.6022 20.904 100.166 21.128 100.574 21.576C100.99 22.024 101.198 22.692 101.198 23.58V27H99.9382V23.712C99.9382 22.56 99.4662 21.984 98.5222 21.984C98.0502 21.984 97.6582 22.152 97.3462 22.488C97.0422 22.824 96.8902 23.304 96.8902 23.928V27H95.6182ZM105.468 27.144C104.892 27.144 104.384 27.008 103.944 26.736C103.504 26.464 103.16 26.092 102.912 25.62C102.664 25.148 102.54 24.612 102.54 24.012C102.54 23.412 102.664 22.88 102.912 22.416C103.16 21.944 103.504 21.576 103.944 21.312C104.392 21.04 104.904 20.904 105.48 20.904C105.952 20.904 106.364 20.996 106.716 21.18C107.076 21.364 107.356 21.624 107.556 21.96V18.36H108.828V27H107.688L107.556 26.076C107.364 26.356 107.1 26.604 106.764 26.82C106.428 27.036 105.996 27.144 105.468 27.144ZM105.696 26.04C106.24 26.04 106.684 25.852 107.028 25.476C107.38 25.1 107.556 24.616 107.556 24.024C107.556 23.424 107.38 22.94 107.028 22.572C106.684 22.196 106.24 22.008 105.696 22.008C105.152 22.008 104.704 22.196 104.352 22.572C104 22.94 103.824 23.424 103.824 24.024C103.824 24.416 103.904 24.764 104.064 25.068C104.224 25.372 104.444 25.612 104.724 25.788C105.012 25.956 105.336 26.04 105.696 26.04ZM110.492 27V18.36H111.764V27H110.492ZM116.219 27.144C115.635 27.144 115.115 27.016 114.659 26.76C114.211 26.496 113.859 26.132 113.603 25.668C113.347 25.204 113.219 24.664 113.219 24.048C113.219 23.424 113.343 22.876 113.591 22.404C113.847 21.932 114.199 21.564 114.647 21.3C115.103 21.036 115.631 20.904 116.231 20.904C116.815 20.904 117.323 21.036 117.755 21.3C118.187 21.556 118.523 21.9 118.763 22.332C119.003 22.764 119.123 23.24 119.123 23.76C119.123 23.84 119.119 23.928 119.111 24.024C119.111 24.112 119.107 24.212 119.099 24.324H114.467C114.507 24.9 114.695 25.34 115.031 25.644C115.375 25.94 115.771 26.088 116.219 26.088C116.579 26.088 116.879 26.008 117.119 25.848C117.367 25.68 117.551 25.456 117.671 25.176H118.943C118.783 25.736 118.463 26.204 117.983 26.58C117.511 26.956 116.923 27.144 116.219 27.144ZM116.219 21.948C115.795 21.948 115.419 22.076 115.091 22.332C114.763 22.58 114.563 22.956 114.491 23.46H117.851C117.827 22.996 117.663 22.628 117.359 22.356C117.055 22.084 116.675 21.948 116.219 21.948ZM123.634 27V18.6H126.802C127.674 18.6 128.334 18.804 128.782 19.212C129.23 19.62 129.454 20.132 129.454 20.748C129.454 21.284 129.31 21.712 129.022 22.032C128.734 22.344 128.386 22.556 127.978 22.668C128.298 22.732 128.582 22.86 128.83 23.052C129.086 23.244 129.286 23.484 129.43 23.772C129.574 24.06 129.646 24.372 129.646 24.708C129.646 25.14 129.538 25.532 129.322 25.884C129.114 26.228 128.806 26.5 128.398 26.7C127.99 26.9 127.49 27 126.898 27H123.634ZM124.906 22.2H126.646C127.134 22.2 127.506 22.088 127.762 21.864C128.018 21.632 128.146 21.316 128.146 20.916C128.146 20.524 128.018 20.212 127.762 19.98C127.514 19.748 127.134 19.632 126.622 19.632H124.906V22.2ZM124.906 25.956H126.73C127.242 25.956 127.638 25.836 127.918 25.596C128.206 25.356 128.35 25.02 128.35 24.588C128.35 24.156 128.202 23.816 127.906 23.568C127.61 23.312 127.21 23.184 126.706 23.184H124.906V25.956ZM130.932 27V26.088C131.476 25.656 131.996 25.22 132.492 24.78C132.988 24.34 133.428 23.908 133.812 23.484C134.204 23.052 134.512 22.632 134.736 22.224C134.96 21.808 135.072 21.408 135.072 21.024C135.072 20.768 135.028 20.528 134.94 20.304C134.852 20.072 134.708 19.888 134.508 19.752C134.308 19.608 134.04 19.536 133.704 19.536C133.2 19.536 132.82 19.696 132.564 20.016C132.316 20.336 132.196 20.72 132.204 21.168H130.968C130.976 20.576 131.1 20.08 131.34 19.68C131.588 19.28 131.916 18.976 132.324 18.768C132.74 18.56 133.208 18.456 133.728 18.456C134.52 18.456 135.152 18.68 135.624 19.128C136.104 19.568 136.344 20.184 136.344 20.976C136.344 21.448 136.228 21.916 135.996 22.38C135.772 22.844 135.476 23.292 135.108 23.724C134.748 24.148 134.36 24.548 133.944 24.924C133.528 25.3 133.132 25.64 132.756 25.944H136.596V27H130.932ZM138.028 27V18.6H141.196C142.068 18.6 142.728 18.804 143.176 19.212C143.624 19.62 143.848 20.132 143.848 20.748C143.848 21.284 143.704 21.712 143.416 22.032C143.128 22.344 142.78 22.556 142.372 22.668C142.692 22.732 142.976 22.86 143.224 23.052C143.48 23.244 143.68 23.484 143.824 23.772C143.968 24.06 144.04 24.372 144.04 24.708C144.04 25.14 143.932 25.532 143.716 25.884C143.508 26.228 143.2 26.5 142.792 26.7C142.384 26.9 141.884 27 141.292 27H138.028ZM139.3 22.2H141.04C141.528 22.2 141.9 22.088 142.156 21.864C142.412 21.632 142.54 21.316 142.54 20.916C142.54 20.524 142.412 20.212 142.156 19.98C141.908 19.748 141.528 19.632 141.016 19.632H139.3V22.2ZM139.3 25.956H141.124C141.636 25.956 142.032 25.836 142.312 25.596C142.6 25.356 142.744 25.02 142.744 24.588C142.744 24.156 142.596 23.816 142.3 23.568C142.004 23.312 141.604 23.184 141.1 23.184H139.3V25.956Z" fill="#065DA7"/>
<path d="M75.506 52H73.924V42.62H75.87L77.886 46.736L78.81 49.13L79.748 46.736L81.764 42.62H83.696V52H82.114V47.59L82.31 44.496L81.232 47.184L79.608 50.418H78.012L76.388 47.184L75.282 44.496L75.506 47.59V52ZM87.0821 52.14C85.9621 52.14 85.2901 51.51 85.2901 50.53C85.2901 49.564 85.9621 48.976 87.0681 48.542L89.3501 47.576C89.2941 46.89 88.9861 46.428 88.0481 46.428C87.1381 46.428 86.4241 46.96 86.0321 47.674L85.0941 46.554C85.6261 45.826 86.6901 45.042 88.2021 45.042C89.8961 45.042 90.8481 46.008 90.8481 47.688V50.25C90.8481 50.558 90.9601 50.656 91.2121 50.656H91.6461V52H90.6801C89.9521 52 89.3781 51.664 89.3781 50.684V50.18C89.1681 51.076 88.5101 52.14 87.0821 52.14ZM86.8021 50.292C86.8021 50.684 87.0681 50.922 87.6421 50.922C88.6781 50.922 89.3781 50.306 89.3781 49.382V48.654L87.6281 49.438C87.0401 49.704 86.8021 49.942 86.8021 50.292ZM94.4832 52H92.9152V42.62H94.4832V46.918L94.4272 48.234L95.5472 47.002L97.4092 45.182H99.3272L96.5692 47.87L99.3272 52H97.4932L95.5052 48.808L94.4832 49.816V52ZM102.955 52.14C100.925 52.14 99.5945 50.726 99.5945 48.598C99.5945 46.456 100.925 45.042 102.843 45.042C104.887 45.042 106.021 46.4 106.021 48.29C106.021 48.542 105.993 48.836 105.965 48.976H101.093C101.177 50.194 101.891 50.852 102.969 50.852C104.159 50.852 104.691 50.236 104.943 49.662L105.909 50.67C105.391 51.454 104.467 52.14 102.955 52.14ZM102.843 46.302C101.877 46.302 101.233 46.862 101.107 47.968H104.607C104.495 46.89 103.879 46.302 102.843 46.302ZM110.156 52.14C108.7 52.14 107.37 51.552 106.852 50.474L107.776 49.494C108.154 50.18 108.994 50.88 110.212 50.88C110.884 50.88 111.318 50.642 111.318 50.152C111.318 49.648 110.8 49.48 110.044 49.298L109.134 49.074C108.056 48.822 107.062 48.346 107.062 47.1C107.062 45.826 108.084 45.056 109.652 45.056C111.108 45.056 112.13 45.756 112.55 46.526L111.626 47.506C111.15 46.75 110.422 46.302 109.54 46.302C108.938 46.302 108.532 46.554 108.532 47.016C108.532 47.506 108.896 47.688 109.82 47.926L110.646 48.136C112.172 48.528 112.732 49.144 112.732 50.124C112.732 51.468 111.598 52.14 110.156 52.14ZM118.593 52H117.025V42.62H118.593V47.016C118.817 45.952 119.419 45.042 120.777 45.042C122.443 45.042 123.507 46.4 123.507 48.598C123.507 50.796 122.443 52.154 120.749 52.154C119.391 52.154 118.817 51.244 118.593 50.194V52ZM118.593 49.032C118.593 50.152 119.055 50.88 120.161 50.88C121.155 50.88 121.897 50.138 121.897 48.598C121.897 47.072 121.155 46.316 120.161 46.316C119.055 46.316 118.593 47.058 118.593 48.178V49.032ZM126.92 52.14C125.604 52.14 124.792 51.342 124.792 49.928V45.182H126.36V49.452C126.36 50.292 126.64 50.866 127.69 50.866C128.838 50.866 129.23 50.124 129.23 49.004V45.182H130.812V52H129.23V50.138C128.978 51.216 128.278 52.14 126.92 52.14ZM135.128 52.14C133.672 52.14 132.342 51.552 131.824 50.474L132.748 49.494C133.126 50.18 133.966 50.88 135.184 50.88C135.856 50.88 136.29 50.642 136.29 50.152C136.29 49.648 135.772 49.48 135.016 49.298L134.106 49.074C133.028 48.822 132.034 48.346 132.034 47.1C132.034 45.826 133.056 45.056 134.624 45.056C136.08 45.056 137.102 45.756 137.522 46.526L136.598 47.506C136.122 46.75 135.394 46.302 134.512 46.302C133.91 46.302 133.504 46.554 133.504 47.016C133.504 47.506 133.868 47.688 134.792 47.926L135.618 48.136C137.144 48.528 137.704 49.144 137.704 50.124C137.704 51.468 136.57 52.14 135.128 52.14ZM140.583 44.216H139.015V42.62H140.583V44.216ZM140.583 52H139.015V45.182H140.583V52ZM143.879 52H142.311V45.182H143.879V47.044C144.131 45.966 144.831 45.042 146.189 45.042C147.519 45.042 148.331 45.84 148.331 47.254V52H146.749V47.73C146.749 46.89 146.469 46.316 145.419 46.316C144.271 46.316 143.879 47.058 143.879 48.178V52ZM153.007 52.14C150.977 52.14 149.647 50.726 149.647 48.598C149.647 46.456 150.977 45.042 152.895 45.042C154.939 45.042 156.073 46.4 156.073 48.29C156.073 48.542 156.045 48.836 156.017 48.976H151.145C151.229 50.194 151.943 50.852 153.021 50.852C154.211 50.852 154.743 50.236 154.995 49.662L155.961 50.67C155.443 51.454 154.519 52.14 153.007 52.14ZM152.895 46.302C151.929 46.302 151.285 46.862 151.159 47.968H154.659C154.547 46.89 153.931 46.302 152.895 46.302ZM160.209 52.14C158.753 52.14 157.423 51.552 156.905 50.474L157.829 49.494C158.207 50.18 159.047 50.88 160.265 50.88C160.937 50.88 161.371 50.642 161.371 50.152C161.371 49.648 160.853 49.48 160.097 49.298L159.187 49.074C158.109 48.822 157.115 48.346 157.115 47.1C157.115 45.826 158.137 45.056 159.705 45.056C161.161 45.056 162.183 45.756 162.603 46.526L161.679 47.506C161.203 46.75 160.475 46.302 159.593 46.302C158.991 46.302 158.585 46.554 158.585 47.016C158.585 47.506 158.949 47.688 159.873 47.926L160.699 48.136C162.225 48.528 162.785 49.144 162.785 50.124C162.785 51.468 161.651 52.14 160.209 52.14ZM166.732 52.14C165.276 52.14 163.946 51.552 163.428 50.474L164.352 49.494C164.73 50.18 165.57 50.88 166.788 50.88C167.46 50.88 167.894 50.642 167.894 50.152C167.894 49.648 167.376 49.48 166.62 49.298L165.71 49.074C164.632 48.822 163.638 48.346 163.638 47.1C163.638 45.826 164.66 45.056 166.228 45.056C167.684 45.056 168.706 45.756 169.126 46.526L168.202 47.506C167.726 46.75 166.998 46.302 166.116 46.302C165.514 46.302 165.108 46.554 165.108 47.016C165.108 47.506 165.472 47.688 166.396 47.926L167.222 48.136C168.748 48.528 169.308 49.144 169.308 50.124C169.308 51.468 168.174 52.14 166.732 52.14ZM176.625 52.14C174.595 52.14 173.265 50.726 173.265 48.598C173.265 46.456 174.595 45.042 176.513 45.042C178.557 45.042 179.691 46.4 179.691 48.29C179.691 48.542 179.663 48.836 179.635 48.976H174.763C174.847 50.194 175.561 50.852 176.639 50.852C177.829 50.852 178.361 50.236 178.613 49.662L179.579 50.67C179.061 51.454 178.137 52.14 176.625 52.14ZM176.513 46.302C175.547 46.302 174.903 46.862 174.777 47.968H178.277C178.165 46.89 177.549 46.302 176.513 46.302ZM182.605 52.14C181.485 52.14 180.813 51.51 180.813 50.53C180.813 49.564 181.485 48.976 182.591 48.542L184.873 47.576C184.817 46.89 184.509 46.428 183.571 46.428C182.661 46.428 181.947 46.96 181.555 47.674L180.617 46.554C181.149 45.826 182.213 45.042 183.725 45.042C185.419 45.042 186.371 46.008 186.371 47.688V50.25C186.371 50.558 186.483 50.656 186.735 50.656H187.169V52H186.203C185.475 52 184.901 51.664 184.901 50.684V50.18C184.691 51.076 184.033 52.14 182.605 52.14ZM182.325 50.292C182.325 50.684 182.591 50.922 183.165 50.922C184.201 50.922 184.901 50.306 184.901 49.382V48.654L183.151 49.438C182.563 49.704 182.325 49.942 182.325 50.292ZM191.033 52.14C189.577 52.14 188.247 51.552 187.729 50.474L188.653 49.494C189.031 50.18 189.871 50.88 191.089 50.88C191.761 50.88 192.195 50.642 192.195 50.152C192.195 49.648 191.677 49.48 190.921 49.298L190.011 49.074C188.933 48.822 187.939 48.346 187.939 47.1C187.939 45.826 188.961 45.056 190.529 45.056C191.985 45.056 193.007 45.756 193.427 46.526L192.503 47.506C192.027 46.75 191.299 46.302 190.417 46.302C189.815 46.302 189.409 46.554 189.409 47.016C189.409 47.506 189.773 47.688 190.697 47.926L191.523 48.136C193.049 48.528 193.609 49.144 193.609 50.124C193.609 51.468 192.475 52.14 191.033 52.14ZM196.488 44.216H194.92V42.62H196.488V44.216ZM196.488 52H194.92V45.182H196.488V52ZM201.241 52.14C199.211 52.14 197.881 50.726 197.881 48.598C197.881 46.456 199.211 45.042 201.129 45.042C203.173 45.042 204.307 46.4 204.307 48.29C204.307 48.542 204.279 48.836 204.251 48.976H199.379C199.463 50.194 200.177 50.852 201.255 50.852C202.445 50.852 202.977 50.236 203.229 49.662L204.195 50.67C203.677 51.454 202.753 52.14 201.241 52.14ZM201.129 46.302C200.163 46.302 199.519 46.862 199.393 47.968H202.893C202.781 46.89 202.165 46.302 201.129 46.302ZM207.319 52H205.751V45.182H207.319V47.114C207.571 46.022 208.257 45.042 209.475 45.042C210.329 45.042 210.959 45.602 210.959 46.61C210.959 47.268 210.777 47.758 210.651 47.968H209.041C209.265 47.744 209.475 47.296 209.475 46.904C209.475 46.526 209.293 46.218 208.831 46.218C208.047 46.218 207.319 47.114 207.319 48.248V52Z" fill="#1B1C1E"/>
<path d="M76.75 69.12C76.09 69.12 75.5133 68.97 75.02 68.67C74.5267 68.37 74.1433 67.95 73.87 67.41C73.5967 66.87 73.46 66.24 73.46 65.52C73.46 64.8067 73.6 64.1767 73.88 63.63C74.16 63.0833 74.5567 62.6567 75.07 62.35C75.59 62.0367 76.2033 61.88 76.91 61.88C77.71 61.88 78.3767 62.0733 78.91 62.46C79.4433 62.8467 79.79 63.38 79.95 64.06H78.75C78.6433 63.6867 78.4333 63.3933 78.12 63.18C77.8067 62.9667 77.4033 62.86 76.91 62.86C76.1767 62.86 75.6 63.0967 75.18 63.57C74.76 64.0433 74.55 64.6967 74.55 65.53C74.55 66.3633 74.7567 67.0133 75.17 67.48C75.5833 67.9467 76.1333 68.18 76.82 68.18C77.5133 68.18 78.0333 67.9833 78.38 67.59C78.7333 67.1967 78.94 66.6733 79 66.02H77.1V65.2H80.07V69H79.1L79.01 67.97C78.7767 68.3367 78.4833 68.62 78.13 68.82C77.7767 69.02 77.3167 69.12 76.75 69.12ZM83.6865 69.12C83.1998 69.12 82.7665 69.0133 82.3865 68.8C82.0132 68.58 81.7198 68.2767 81.5065 67.89C81.2932 67.5033 81.1865 67.0533 81.1865 66.54C81.1865 66.02 81.2898 65.5633 81.4965 65.17C81.7098 64.7767 82.0032 64.47 82.3765 64.25C82.7565 64.03 83.1965 63.92 83.6965 63.92C84.1832 63.92 84.6065 64.03 84.9665 64.25C85.3265 64.4633 85.6065 64.75 85.8065 65.11C86.0065 65.47 86.1065 65.8667 86.1065 66.3C86.1065 66.3667 86.1032 66.44 86.0965 66.52C86.0965 66.5933 86.0932 66.6767 86.0865 66.77H82.2265C82.2598 67.25 82.4165 67.6167 82.6965 67.87C82.9832 68.1167 83.3132 68.24 83.6865 68.24C83.9865 68.24 84.2365 68.1733 84.4365 68.04C84.6432 67.9 84.7965 67.7133 84.8965 67.48H85.9565C85.8232 67.9467 85.5565 68.3367 85.1565 68.65C84.7632 68.9633 84.2732 69.12 83.6865 69.12ZM83.6865 64.79C83.3332 64.79 83.0198 64.8967 82.7465 65.11C82.4732 65.3167 82.3065 65.63 82.2465 66.05H85.0465C85.0265 65.6633 84.8898 65.3567 84.6365 65.13C84.3832 64.9033 84.0665 64.79 83.6865 64.79ZM89.2094 69C88.7227 69 88.336 68.8833 88.0494 68.65C87.7627 68.41 87.6194 67.9867 87.6194 67.38V64.93H86.7694V64.04H87.6194L87.7494 62.78H88.6794V64.04H90.0794V64.93H88.6794V67.38C88.6794 67.6533 88.736 67.8433 88.8494 67.95C88.9694 68.05 89.1727 68.1 89.4594 68.1H90.0294V69H89.2094ZM94.3719 71.2L95.5619 68.59H95.2719L93.3119 64.04H94.4619L95.9819 67.71L97.5719 64.04H98.6919L95.4919 71.2H94.3719ZM101.484 69.12C101.011 69.12 100.584 69.0133 100.204 68.8C99.8308 68.58 99.5341 68.2767 99.3141 67.89C99.0941 67.4967 98.9841 67.04 98.9841 66.52C98.9841 66 99.0941 65.5467 99.3141 65.16C99.5408 64.7667 99.8441 64.4633 100.224 64.25C100.604 64.03 101.027 63.92 101.494 63.92C101.967 63.92 102.391 64.03 102.764 64.25C103.144 64.4633 103.444 64.7667 103.664 65.16C103.891 65.5467 104.004 66 104.004 66.52C104.004 67.04 103.891 67.4967 103.664 67.89C103.444 68.2767 103.144 68.58 102.764 68.8C102.384 69.0133 101.957 69.12 101.484 69.12ZM101.484 68.21C101.737 68.21 101.971 68.1467 102.184 68.02C102.404 67.8933 102.581 67.7067 102.714 67.46C102.847 67.2067 102.914 66.8933 102.914 66.52C102.914 66.1467 102.847 65.8367 102.714 65.59C102.587 65.3367 102.414 65.1467 102.194 65.02C101.981 64.8933 101.747 64.83 101.494 64.83C101.241 64.83 101.004 64.8933 100.784 65.02C100.571 65.1467 100.397 65.3367 100.264 65.59C100.131 65.8367 100.064 66.1467 100.064 66.52C100.064 66.8933 100.131 67.2067 100.264 67.46C100.397 67.7067 100.571 67.8933 100.784 68.02C100.997 68.1467 101.231 68.21 101.484 68.21ZM107.03 69.12C106.43 69.12 105.957 68.9333 105.61 68.56C105.27 68.1867 105.1 67.63 105.1 66.89V64.04H106.16V66.78C106.16 67.74 106.554 68.22 107.34 68.22C107.734 68.22 108.057 68.08 108.31 67.8C108.564 67.52 108.69 67.12 108.69 66.6V64.04H109.75V69H108.81L108.73 68.13C108.577 68.4367 108.35 68.68 108.05 68.86C107.757 69.0333 107.417 69.12 107.03 69.12ZM111.149 69V64.04H112.099L112.189 64.98C112.362 64.6533 112.602 64.3967 112.909 64.21C113.222 64.0167 113.599 63.92 114.039 63.92V65.03H113.749C113.456 65.03 113.192 65.08 112.959 65.18C112.732 65.2733 112.549 65.4367 112.409 65.67C112.276 65.8967 112.209 66.2133 112.209 66.62V69H111.149ZM119.887 69.12C119.414 69.12 118.987 69.0133 118.607 68.8C118.234 68.58 117.937 68.2767 117.717 67.89C117.497 67.4967 117.387 67.04 117.387 66.52C117.387 66 117.497 65.5467 117.717 65.16C117.944 64.7667 118.247 64.4633 118.627 64.25C119.007 64.03 119.431 63.92 119.897 63.92C120.371 63.92 120.794 64.03 121.167 64.25C121.547 64.4633 121.847 64.7667 122.067 65.16C122.294 65.5467 122.407 66 122.407 66.52C122.407 67.04 122.294 67.4967 122.067 67.89C121.847 68.2767 121.547 68.58 121.167 68.8C120.787 69.0133 120.361 69.12 119.887 69.12ZM119.887 68.21C120.141 68.21 120.374 68.1467 120.587 68.02C120.807 67.8933 120.984 67.7067 121.117 67.46C121.251 67.2067 121.317 66.8933 121.317 66.52C121.317 66.1467 121.251 65.8367 121.117 65.59C120.991 65.3367 120.817 65.1467 120.597 65.02C120.384 64.8933 120.151 64.83 119.897 64.83C119.644 64.83 119.407 64.8933 119.187 65.02C118.974 65.1467 118.801 65.3367 118.667 65.59C118.534 65.8367 118.467 66.1467 118.467 66.52C118.467 66.8933 118.534 67.2067 118.667 67.46C118.801 67.7067 118.974 67.8933 119.187 68.02C119.401 68.1467 119.634 68.21 119.887 68.21ZM123.854 69V64.93H123.144V64.04H123.854V63.32C123.854 62.78 123.987 62.3933 124.254 62.16C124.527 61.92 124.91 61.8 125.404 61.8H125.924V62.7H125.564C125.33 62.7 125.164 62.75 125.064 62.85C124.964 62.9433 124.914 63.1033 124.914 63.33V64.04H126.054V64.93H124.914V69H123.854ZM127.361 69V64.93H126.651V64.04H127.361V63.32C127.361 62.78 127.494 62.3933 127.761 62.16C128.034 61.92 128.417 61.8 128.911 61.8H129.431V62.7H129.071C128.837 62.7 128.671 62.75 128.571 62.85C128.471 62.9433 128.421 63.1033 128.421 63.33V64.04H131.561V69H130.501V64.93H128.421V69H127.361ZM131.041 63.21C130.841 63.21 130.674 63.15 130.541 63.03C130.414 62.9033 130.351 62.7433 130.351 62.55C130.351 62.3633 130.414 62.21 130.541 62.09C130.674 61.97 130.841 61.91 131.041 61.91C131.241 61.91 131.404 61.97 131.531 62.09C131.664 62.21 131.731 62.3633 131.731 62.55C131.731 62.7433 131.664 62.9033 131.531 63.03C131.404 63.15 131.241 63.21 131.041 63.21ZM135.37 69.12C134.883 69.12 134.447 69.01 134.06 68.79C133.68 68.57 133.38 68.2667 133.16 67.88C132.947 67.4867 132.84 67.0333 132.84 66.52C132.84 66.0067 132.947 65.5567 133.16 65.17C133.38 64.7767 133.68 64.47 134.06 64.25C134.447 64.03 134.883 63.92 135.37 63.92C135.983 63.92 136.497 64.08 136.91 64.4C137.33 64.72 137.6 65.1533 137.72 65.7H136.61C136.543 65.4267 136.397 65.2133 136.17 65.06C135.943 64.9067 135.677 64.83 135.37 64.83C135.11 64.83 134.87 64.8967 134.65 65.03C134.43 65.1567 134.253 65.3467 134.12 65.6C133.987 65.8467 133.92 66.1533 133.92 66.52C133.92 66.8867 133.987 67.1967 134.12 67.45C134.253 67.6967 134.43 67.8867 134.65 68.02C134.87 68.1533 135.11 68.22 135.37 68.22C135.677 68.22 135.943 68.1433 136.17 67.99C136.397 67.8367 136.543 67.62 136.61 67.34H137.72C137.607 67.8733 137.34 68.3033 136.92 68.63C136.5 68.9567 135.983 69.12 135.37 69.12ZM141.24 69.12C140.753 69.12 140.32 69.0133 139.94 68.8C139.566 68.58 139.273 68.2767 139.06 67.89C138.846 67.5033 138.74 67.0533 138.74 66.54C138.74 66.02 138.843 65.5633 139.05 65.17C139.263 64.7767 139.556 64.47 139.93 64.25C140.31 64.03 140.75 63.92 141.25 63.92C141.736 63.92 142.16 64.03 142.52 64.25C142.88 64.4633 143.16 64.75 143.36 65.11C143.56 65.47 143.66 65.8667 143.66 66.3C143.66 66.3667 143.656 66.44 143.65 66.52C143.65 66.5933 143.646 66.6767 143.64 66.77H139.78C139.813 67.25 139.97 67.6167 140.25 67.87C140.536 68.1167 140.866 68.24 141.24 68.24C141.54 68.24 141.79 68.1733 141.99 68.04C142.196 67.9 142.35 67.7133 142.45 67.48H143.51C143.376 67.9467 143.11 68.3367 142.71 68.65C142.316 68.9633 141.826 69.12 141.24 69.12ZM141.24 64.79C140.886 64.79 140.573 64.8967 140.3 65.11C140.026 65.3167 139.86 65.63 139.8 66.05H142.6C142.58 65.6633 142.443 65.3567 142.19 65.13C141.936 64.9033 141.62 64.79 141.24 64.79ZM147.379 71.2V64.04H148.329L148.439 64.81C148.599 64.5767 148.819 64.37 149.099 64.19C149.379 64.01 149.739 63.92 150.179 63.92C150.659 63.92 151.082 64.0333 151.449 64.26C151.816 64.4867 152.102 64.7967 152.309 65.19C152.522 65.5833 152.629 66.03 152.629 66.53C152.629 67.03 152.522 67.4767 152.309 67.87C152.102 68.2567 151.816 68.5633 151.449 68.79C151.082 69.01 150.656 69.12 150.169 69.12C149.782 69.12 149.439 69.0433 149.139 68.89C148.846 68.7367 148.612 68.52 148.439 68.24V71.2H147.379ZM149.989 68.2C150.442 68.2 150.816 68.0467 151.109 67.74C151.402 67.4267 151.549 67.02 151.549 66.52C151.549 66.1933 151.482 65.9033 151.349 65.65C151.216 65.3967 151.032 65.2 150.799 65.06C150.566 64.9133 150.296 64.84 149.989 64.84C149.536 64.84 149.162 64.9967 148.869 65.31C148.582 65.6233 148.439 66.0267 148.439 66.52C148.439 67.02 148.582 67.4267 148.869 67.74C149.162 68.0467 149.536 68.2 149.989 68.2ZM153.825 69V64.04H154.775L154.865 64.98C155.039 64.6533 155.279 64.3967 155.585 64.21C155.899 64.0167 156.275 63.92 156.715 63.92V65.03H156.425C156.132 65.03 155.869 65.08 155.635 65.18C155.409 65.2733 155.225 65.4367 155.085 65.67C154.952 65.8967 154.885 66.2133 154.885 66.62V69H153.825ZM159.858 69.12C159.384 69.12 158.958 69.0133 158.578 68.8C158.204 68.58 157.908 68.2767 157.688 67.89C157.468 67.4967 157.358 67.04 157.358 66.52C157.358 66 157.468 65.5467 157.688 65.16C157.914 64.7667 158.218 64.4633 158.598 64.25C158.978 64.03 159.401 63.92 159.868 63.92C160.341 63.92 160.764 64.03 161.138 64.25C161.518 64.4633 161.818 64.7667 162.038 65.16C162.264 65.5467 162.378 66 162.378 66.52C162.378 67.04 162.264 67.4967 162.038 67.89C161.818 68.2767 161.518 68.58 161.138 68.8C160.758 69.0133 160.331 69.12 159.858 69.12ZM159.858 68.21C160.111 68.21 160.344 68.1467 160.558 68.02C160.778 67.8933 160.954 67.7067 161.088 67.46C161.221 67.2067 161.288 66.8933 161.288 66.52C161.288 66.1467 161.221 65.8367 161.088 65.59C160.961 65.3367 160.788 65.1467 160.568 65.02C160.354 64.8933 160.121 64.83 159.868 64.83C159.614 64.83 159.378 64.8933 159.158 65.02C158.944 65.1467 158.771 65.3367 158.638 65.59C158.504 65.8367 158.438 66.1467 158.438 66.52C158.438 66.8933 158.504 67.2067 158.638 67.46C158.771 67.7067 158.944 67.8933 159.158 68.02C159.371 68.1467 159.604 68.21 159.858 68.21ZM165.924 69.12C165.437 69.12 165.001 69.01 164.614 68.79C164.234 68.57 163.934 68.2667 163.714 67.88C163.501 67.4867 163.394 67.0333 163.394 66.52C163.394 66.0067 163.501 65.5567 163.714 65.17C163.934 64.7767 164.234 64.47 164.614 64.25C165.001 64.03 165.437 63.92 165.924 63.92C166.537 63.92 167.051 64.08 167.464 64.4C167.884 64.72 168.154 65.1533 168.274 65.7H167.164C167.097 65.4267 166.951 65.2133 166.724 65.06C166.497 64.9067 166.231 64.83 165.924 64.83C165.664 64.83 165.424 64.8967 165.204 65.03C164.984 65.1567 164.807 65.3467 164.674 65.6C164.541 65.8467 164.474 66.1533 164.474 66.52C164.474 66.8867 164.541 67.1967 164.674 67.45C164.807 67.6967 164.984 67.8867 165.204 68.02C165.424 68.1533 165.664 68.22 165.924 68.22C166.231 68.22 166.497 68.1433 166.724 67.99C166.951 67.8367 167.097 67.62 167.164 67.34H168.274C168.161 67.8733 167.894 68.3033 167.474 68.63C167.054 68.9567 166.537 69.12 165.924 69.12ZM171.304 69.12C170.704 69.12 170.23 68.9333 169.884 68.56C169.544 68.1867 169.374 67.63 169.374 66.89V64.04H170.434V66.78C170.434 67.74 170.827 68.22 171.614 68.22C172.007 68.22 172.33 68.08 172.584 67.8C172.837 67.52 172.964 67.12 172.964 66.6V64.04H174.024V69H173.084L173.004 68.13C172.85 68.4367 172.624 68.68 172.324 68.86C172.03 69.0333 171.69 69.12 171.304 69.12ZM175.422 69V64.04H176.372L176.462 64.98C176.635 64.6533 176.875 64.3967 177.182 64.21C177.495 64.0167 177.872 63.92 178.312 63.92V65.03H178.022C177.729 65.03 177.465 65.08 177.232 65.18C177.005 65.2733 176.822 65.4367 176.682 65.67C176.549 65.8967 176.482 66.2133 176.482 66.62V69H175.422ZM181.454 69.12C180.967 69.12 180.534 69.0133 180.154 68.8C179.781 68.58 179.487 68.2767 179.274 67.89C179.061 67.5033 178.954 67.0533 178.954 66.54C178.954 66.02 179.057 65.5633 179.264 65.17C179.477 64.7767 179.771 64.47 180.144 64.25C180.524 64.03 180.964 63.92 181.464 63.92C181.951 63.92 182.374 64.03 182.734 64.25C183.094 64.4633 183.374 64.75 183.574 65.11C183.774 65.47 183.874 65.8667 183.874 66.3C183.874 66.3667 183.871 66.44 183.864 66.52C183.864 66.5933 183.861 66.6767 183.854 66.77H179.994C180.027 67.25 180.184 67.6167 180.464 67.87C180.751 68.1167 181.081 68.24 181.454 68.24C181.754 68.24 182.004 68.1733 182.204 68.04C182.411 67.9 182.564 67.7133 182.664 67.48H183.724C183.591 67.9467 183.324 68.3367 182.924 68.65C182.531 68.9633 182.041 69.12 181.454 69.12ZM181.454 64.79C181.101 64.79 180.787 64.8967 180.514 65.11C180.241 65.3167 180.074 65.63 180.014 66.05H182.814C182.794 65.6633 182.657 65.3567 182.404 65.13C182.151 64.9033 181.834 64.79 181.454 64.79ZM185.024 69V64.04H185.964L186.054 64.74C186.214 64.4867 186.424 64.2867 186.684 64.14C186.951 63.9933 187.257 63.92 187.604 63.92C188.391 63.92 188.937 64.23 189.244 64.85C189.424 64.5633 189.664 64.3367 189.964 64.17C190.271 64.0033 190.601 63.92 190.954 63.92C191.574 63.92 192.061 64.1067 192.414 64.48C192.767 64.8533 192.944 65.41 192.944 66.15V69H191.884V66.26C191.884 65.3 191.517 64.82 190.784 64.82C190.411 64.82 190.104 64.96 189.864 65.24C189.631 65.52 189.514 65.92 189.514 66.44V69H188.454V66.26C188.454 65.3 188.084 64.82 187.344 64.82C186.977 64.82 186.674 64.96 186.434 65.24C186.201 65.52 186.084 65.92 186.084 66.44V69H185.024ZM196.554 69.12C196.067 69.12 195.634 69.0133 195.254 68.8C194.881 68.58 194.587 68.2767 194.374 67.89C194.161 67.5033 194.054 67.0533 194.054 66.54C194.054 66.02 194.157 65.5633 194.364 65.17C194.577 64.7767 194.871 64.47 195.244 64.25C195.624 64.03 196.064 63.92 196.564 63.92C197.051 63.92 197.474 64.03 197.834 64.25C198.194 64.4633 198.474 64.75 198.674 65.11C198.874 65.47 198.974 65.8667 198.974 66.3C198.974 66.3667 198.971 66.44 198.964 66.52C198.964 66.5933 198.961 66.6767 198.954 66.77H195.094C195.127 67.25 195.284 67.6167 195.564 67.87C195.851 68.1167 196.181 68.24 196.554 68.24C196.854 68.24 197.104 68.1733 197.304 68.04C197.511 67.9 197.664 67.7133 197.764 67.48H198.824C198.691 67.9467 198.424 68.3367 198.024 68.65C197.631 68.9633 197.141 69.12 196.554 69.12ZM196.554 64.79C196.201 64.79 195.887 64.8967 195.614 65.11C195.341 65.3167 195.174 65.63 195.114 66.05H197.914C197.894 65.6633 197.757 65.3567 197.504 65.13C197.251 64.9033 196.934 64.79 196.554 64.79ZM200.124 69V64.04H201.064L201.144 64.91C201.297 64.6033 201.521 64.3633 201.814 64.19C202.114 64.01 202.457 63.92 202.844 63.92C203.444 63.92 203.914 64.1067 204.254 64.48C204.601 64.8533 204.774 65.41 204.774 66.15V69H203.724V66.26C203.724 65.3 203.331 64.82 202.544 64.82C202.151 64.82 201.824 64.96 201.564 65.24C201.311 65.52 201.184 65.92 201.184 66.44V69H200.124ZM208.152 69C207.666 69 207.279 68.8833 206.992 68.65C206.706 68.41 206.562 67.9867 206.562 67.38V64.93H205.712V64.04H206.562L206.692 62.78H207.622V64.04H209.022V64.93H207.622V67.38C207.622 67.6533 207.679 67.8433 207.792 67.95C207.912 68.05 208.116 68.1 208.402 68.1H208.972V69H208.152ZM214.715 69.12C214.088 69.12 213.572 68.9667 213.165 68.66C212.758 68.3533 212.525 67.9467 212.465 67.44H213.535C213.588 67.6667 213.715 67.8633 213.915 68.03C214.115 68.19 214.378 68.27 214.705 68.27C215.025 68.27 215.258 68.2033 215.405 68.07C215.552 67.9367 215.625 67.7833 215.625 67.61C215.625 67.3567 215.522 67.1867 215.315 67.1C215.115 67.0067 214.835 66.9233 214.475 66.85C214.195 66.79 213.915 66.71 213.635 66.61C213.362 66.51 213.132 66.37 212.945 66.19C212.765 66.0033 212.675 65.7533 212.675 65.44C212.675 65.0067 212.842 64.6467 213.175 64.36C213.508 64.0667 213.975 63.92 214.575 63.92C215.128 63.92 215.575 64.0533 215.915 64.32C216.262 64.5867 216.465 64.9633 216.525 65.45H215.505C215.472 65.2367 215.372 65.07 215.205 64.95C215.045 64.83 214.828 64.77 214.555 64.77C214.288 64.77 214.082 64.8267 213.935 64.94C213.788 65.0467 213.715 65.1867 213.715 65.36C213.715 65.5333 213.815 65.67 214.015 65.77C214.222 65.87 214.492 65.96 214.825 66.04C215.158 66.1133 215.465 66.2 215.745 66.3C216.032 66.3933 216.262 66.5333 216.435 66.72C216.608 66.9067 216.695 67.18 216.695 67.54C216.702 67.9933 216.525 68.37 216.165 68.67C215.812 68.97 215.328 69.12 214.715 69.12ZM220.222 69.12C219.749 69.12 219.322 69.0133 218.942 68.8C218.569 68.58 218.272 68.2767 218.052 67.89C217.832 67.4967 217.722 67.04 217.722 66.52C217.722 66 217.832 65.5467 218.052 65.16C218.279 64.7667 218.582 64.4633 218.962 64.25C219.342 64.03 219.765 63.92 220.232 63.92C220.705 63.92 221.129 64.03 221.502 64.25C221.882 64.4633 222.182 64.7667 222.402 65.16C222.629 65.5467 222.742 66 222.742 66.52C222.742 67.04 222.629 67.4967 222.402 67.89C222.182 68.2767 221.882 68.58 221.502 68.8C221.122 69.0133 220.695 69.12 220.222 69.12ZM220.222 68.21C220.475 68.21 220.709 68.1467 220.922 68.02C221.142 67.8933 221.319 67.7067 221.452 67.46C221.585 67.2067 221.652 66.8933 221.652 66.52C221.652 66.1467 221.585 65.8367 221.452 65.59C221.325 65.3367 221.152 65.1467 220.932 65.02C220.719 64.8933 220.485 64.83 220.232 64.83C219.979 64.83 219.742 64.8933 219.522 65.02C219.309 65.1467 219.135 65.3367 219.002 65.59C218.869 65.8367 218.802 66.1467 218.802 66.52C218.802 66.8933 218.869 67.2067 219.002 67.46C219.135 67.7067 219.309 67.8933 219.522 68.02C219.735 68.1467 219.969 68.21 220.222 68.21ZM223.938 69V64.04H224.888L224.978 64.98C225.152 64.6533 225.392 64.3967 225.698 64.21C226.012 64.0167 226.388 63.92 226.828 63.92V65.03H226.538C226.245 65.03 225.982 65.08 225.748 65.18C225.522 65.2733 225.338 65.4367 225.198 65.67C225.065 65.8967 224.998 66.2133 224.998 66.62V69H223.938ZM229.867 69C229.381 69 228.994 68.8833 228.707 68.65C228.421 68.41 228.277 67.9867 228.277 67.38V64.93H227.427V64.04H228.277L228.407 62.78H229.337V64.04H230.737V64.93H229.337V67.38C229.337 67.6533 229.394 67.8433 229.507 67.95C229.627 68.05 229.831 68.1 230.117 68.1H230.687V69H229.867ZM234.073 69.12C233.587 69.12 233.153 69.0133 232.773 68.8C232.4 68.58 232.107 68.2767 231.893 67.89C231.68 67.5033 231.573 67.0533 231.573 66.54C231.573 66.02 231.677 65.5633 231.883 65.17C232.097 64.7767 232.39 64.47 232.763 64.25C233.143 64.03 233.583 63.92 234.083 63.92C234.57 63.92 234.993 64.03 235.353 64.25C235.713 64.4633 235.993 64.75 236.193 65.11C236.393 65.47 236.493 65.8667 236.493 66.3C236.493 66.3667 236.49 66.44 236.483 66.52C236.483 66.5933 236.48 66.6767 236.473 66.77H232.613C232.647 67.25 232.803 67.6167 233.083 67.87C233.37 68.1167 233.7 68.24 234.073 68.24C234.373 68.24 234.623 68.1733 234.823 68.04C235.03 67.9 235.183 67.7133 235.283 67.48H236.343C236.21 67.9467 235.943 68.3367 235.543 68.65C235.15 68.9633 234.66 69.12 234.073 69.12ZM234.073 64.79C233.72 64.79 233.407 64.8967 233.133 65.11C232.86 65.3167 232.693 65.63 232.633 66.05H235.433C235.413 65.6633 235.277 65.3567 235.023 65.13C234.77 64.9033 234.453 64.79 234.073 64.79ZM239.903 69.12C239.423 69.12 239 69.0067 238.633 68.78C238.266 68.5533 237.98 68.2433 237.773 67.85C237.566 67.4567 237.463 67.01 237.463 66.51C237.463 66.01 237.566 65.5667 237.773 65.18C237.98 64.7867 238.266 64.48 238.633 64.26C239.006 64.0333 239.433 63.92 239.913 63.92C240.306 63.92 240.65 63.9967 240.943 64.15C241.243 64.3033 241.476 64.52 241.643 64.8V61.8H242.703V69H241.753L241.643 68.23C241.483 68.4633 241.263 68.67 240.983 68.85C240.703 69.03 240.343 69.12 239.903 69.12ZM240.093 68.2C240.546 68.2 240.916 68.0433 241.203 67.73C241.496 67.4167 241.643 67.0133 241.643 66.52C241.643 66.02 241.496 65.6167 241.203 65.31C240.916 64.9967 240.546 64.84 240.093 64.84C239.64 64.84 239.266 64.9967 238.973 65.31C238.68 65.6167 238.533 66.02 238.533 66.52C238.533 66.8467 238.6 67.1367 238.733 67.39C238.866 67.6433 239.05 67.8433 239.283 67.99C239.523 68.13 239.793 68.2 240.093 68.2Z" fill="#1B1C1E" fill-opacity="0.6"/>
</g>
<defs>
<filter id="filter0_d_1176_53" x="0.5" y="0.5" width="268" height="90" filterUnits="userSpaceOnUse" color-interpolation-filters="sRGB">
<feFlood flood-opacity="0" result="BackgroundImageFix"/>
<feColorMatrix in="SourceAlpha" type="matrix" values="0 0 0 0 0 0 0 0 0 0 0 0 0 0 0 0 0 0 127 0" result="hardAlpha"/>
<feOffset dy="2"/>
<feGaussianBlur stdDeviation="4"/>
<feComposite in2="hardAlpha" operator="out"/>
<feColorMatrix type="matrix" values="0 0 0 0 0 0 0 0 0 0 0 0 0 0 0 0 0 0 0.12 0"/>
<feBlend mode="normal" in2="BackgroundImageFix" result="effect1_dropShadow_1176_53"/>
<feBlend mode="normal" in="SourceGraphic" in2="effect1_dropShadow_1176_53" result="shape"/>
</filter>
</defs>
</svg>
