<svg width="1449" height="799" viewBox="0 0 1449 799" fill="none" xmlns="http://www.w3.org/2000/svg">
<g opacity="0.02">
<path d="M270.824 57.342L305.072 116.661H236.576L270.824 57.342Z" fill="#065DA7"/>
<path d="M33.5463 36.8901L67.7944 96.2096H-0.701801L33.5463 36.8901Z" fill="#065DA7"/>
<path d="M34.4096 272.85L68.6577 332.169H0.16148L34.4096 272.85Z" fill="#065DA7"/>
<path d="M256.324 272.85L290.572 332.169H222.076L256.324 272.85Z" fill="#065DA7"/>
<path d="M388.184 121.345L415.218 20.4519L314.325 47.4861L318.897 52.0584L407.299 28.3713L383.612 116.773L388.184 121.345Z" fill="#065DA7"/>
<path d="M378.23 111.391L397.978 37.6924L324.279 57.44L378.23 111.391Z" fill="#065DA7"/>
<path d="M150.906 100.893L177.94 0L77.0471 27.0342L81.6194 31.6065L170.021 7.91939L146.334 96.3209L150.906 100.893Z" fill="#065DA7"/>
<path d="M140.952 90.9393L160.7 17.2405L87.0009 36.9881L140.952 90.9393Z" fill="#065DA7"/>
<path d="M133.769 336.853L160.804 235.959L59.9104 262.994L64.4827 267.566L152.884 243.879L129.197 332.28L133.769 336.853Z" fill="#065DA7"/>
<path d="M123.815 326.899L143.563 253.2L69.8642 272.948L123.815 326.899Z" fill="#065DA7"/>
<path d="M373.684 336.853L400.718 235.959L299.825 262.994L304.397 267.566L392.798 243.879L369.111 332.28L373.684 336.853Z" fill="#065DA7"/>
<path d="M363.73 326.899L383.477 253.2L309.779 272.948L363.73 326.899Z" fill="#065DA7"/>
<path d="M396.361 202.84L364.072 170.551L408.18 158.732L396.361 202.84Z" stroke="#065DA7" stroke-width="3.29552"/>
<path d="M159.083 182.388L126.794 150.099L170.902 138.28L159.083 182.388Z" stroke="#065DA7" stroke-width="3.29552"/>
<path d="M141.947 418.348L109.657 386.058L153.765 374.239L141.947 418.348Z" stroke="#065DA7" stroke-width="3.29552"/>
<path d="M381.861 418.348L349.572 386.058L393.68 374.239L381.861 418.348Z" stroke="#065DA7" stroke-width="3.29552"/>
</g>
<g opacity="0.02">
<path d="M270.824 484.342L305.072 543.661H236.576L270.824 484.342Z" fill="#065DA7"/>
<path d="M33.5463 463.89L67.7944 523.21H-0.701801L33.5463 463.89Z" fill="#065DA7"/>
<path d="M34.4096 699.85L68.6577 759.169H0.16148L34.4096 699.85Z" fill="#065DA7"/>
<path d="M256.324 699.85L290.572 759.169H222.076L256.324 699.85Z" fill="#065DA7"/>
<path d="M388.184 548.345L415.218 447.452L314.325 474.486L318.897 479.058L407.299 455.371L383.612 543.773L388.184 548.345Z" fill="#065DA7"/>
<path d="M378.23 538.391L397.978 464.692L324.279 484.44L378.23 538.391Z" fill="#065DA7"/>
<path d="M150.906 527.893L177.94 427L77.0471 454.034L81.6194 458.606L170.021 434.919L146.334 523.321L150.906 527.893Z" fill="#065DA7"/>
<path d="M140.952 517.939L160.7 444.241L87.0009 463.988L140.952 517.939Z" fill="#065DA7"/>
<path d="M133.769 763.853L160.804 662.959L59.9104 689.994L64.4827 694.566L152.884 670.879L129.197 759.28L133.769 763.853Z" fill="#065DA7"/>
<path d="M123.815 753.899L143.563 680.2L69.8642 699.948L123.815 753.899Z" fill="#065DA7"/>
<path d="M373.684 763.853L400.718 662.959L299.825 689.994L304.397 694.566L392.798 670.879L369.111 759.28L373.684 763.853Z" fill="#065DA7"/>
<path d="M363.73 753.899L383.477 680.2L309.779 699.948L363.73 753.899Z" fill="#065DA7"/>
<path d="M396.361 629.84L364.072 597.551L408.18 585.732L396.361 629.84Z" stroke="#065DA7" stroke-width="3.29552"/>
<path d="M159.083 609.388L126.794 577.099L170.902 565.28L159.083 609.388Z" stroke="#065DA7" stroke-width="3.29552"/>
<path d="M141.947 845.348L109.657 813.058L153.765 801.239L141.947 845.348Z" stroke="#065DA7" stroke-width="3.29552"/>
<path d="M381.861 845.348L349.572 813.058L393.68 801.239L381.861 845.348Z" stroke="#065DA7" stroke-width="3.29552"/>
</g>
<g opacity="0.02">
<path d="M710.824 57.342L745.072 116.661H676.576L710.824 57.342Z" fill="#065DA7"/>
<path d="M473.546 36.8901L507.794 96.2096H439.298L473.546 36.8901Z" fill="#065DA7"/>
<path d="M474.41 272.85L508.658 332.169H440.161L474.41 272.85Z" fill="#065DA7"/>
<path d="M696.324 272.85L730.572 332.169H662.076L696.324 272.85Z" fill="#065DA7"/>
<path d="M828.184 121.345L855.218 20.4519L754.325 47.4861L758.897 52.0584L847.299 28.3713L823.612 116.773L828.184 121.345Z" fill="#065DA7"/>
<path d="M818.23 111.391L837.978 37.6924L764.279 57.44L818.23 111.391Z" fill="#065DA7"/>
<path d="M590.906 100.893L617.94 0L517.047 27.0342L521.619 31.6065L610.021 7.91939L586.334 96.3209L590.906 100.893Z" fill="#065DA7"/>
<path d="M580.952 90.9393L600.7 17.2405L527.001 36.9881L580.952 90.9393Z" fill="#065DA7"/>
<path d="M573.769 336.853L600.804 235.959L499.91 262.994L504.483 267.566L592.884 243.879L569.197 332.28L573.769 336.853Z" fill="#065DA7"/>
<path d="M563.815 326.899L583.563 253.2L509.864 272.948L563.815 326.899Z" fill="#065DA7"/>
<path d="M813.684 336.853L840.718 235.959L739.825 262.994L744.397 267.566L832.798 243.879L809.111 332.28L813.684 336.853Z" fill="#065DA7"/>
<path d="M803.73 326.899L823.477 253.2L749.779 272.948L803.73 326.899Z" fill="#065DA7"/>
<path d="M836.361 202.84L804.072 170.551L848.18 158.732L836.361 202.84Z" stroke="#065DA7" stroke-width="3.29552"/>
<path d="M599.083 182.388L566.794 150.099L610.902 138.28L599.083 182.388Z" stroke="#065DA7" stroke-width="3.29552"/>
<path d="M581.947 418.348L549.657 386.058L593.765 374.239L581.947 418.348Z" stroke="#065DA7" stroke-width="3.29552"/>
<path d="M821.861 418.348L789.572 386.058L833.68 374.239L821.861 418.348Z" stroke="#065DA7" stroke-width="3.29552"/>
</g>
<g opacity="0.02">
<path d="M710.824 484.342L745.072 543.661H676.576L710.824 484.342Z" fill="#065DA7"/>
<path d="M473.546 463.89L507.794 523.21H439.298L473.546 463.89Z" fill="#065DA7"/>
<path d="M474.41 699.85L508.658 759.169H440.161L474.41 699.85Z" fill="#065DA7"/>
<path d="M696.324 699.85L730.572 759.169H662.076L696.324 699.85Z" fill="#065DA7"/>
<path d="M828.184 548.345L855.218 447.452L754.325 474.486L758.897 479.058L847.299 455.371L823.612 543.773L828.184 548.345Z" fill="#065DA7"/>
<path d="M818.23 538.391L837.978 464.692L764.279 484.44L818.23 538.391Z" fill="#065DA7"/>
<path d="M590.906 527.893L617.94 427L517.047 454.034L521.619 458.606L610.021 434.919L586.334 523.321L590.906 527.893Z" fill="#065DA7"/>
<path d="M580.952 517.939L600.7 444.241L527.001 463.988L580.952 517.939Z" fill="#065DA7"/>
<path d="M573.769 763.853L600.804 662.959L499.91 689.994L504.483 694.566L592.884 670.879L569.197 759.28L573.769 763.853Z" fill="#065DA7"/>
<path d="M563.815 753.899L583.563 680.2L509.864 699.948L563.815 753.899Z" fill="#065DA7"/>
<path d="M813.684 763.853L840.718 662.959L739.825 689.994L744.397 694.566L832.798 670.879L809.111 759.28L813.684 763.853Z" fill="#065DA7"/>
<path d="M803.73 753.899L823.477 680.2L749.779 699.948L803.73 753.899Z" fill="#065DA7"/>
<path d="M836.361 629.84L804.072 597.551L848.18 585.732L836.361 629.84Z" stroke="#065DA7" stroke-width="3.29552"/>
<path d="M599.083 609.388L566.794 577.099L610.902 565.28L599.083 609.388Z" stroke="#065DA7" stroke-width="3.29552"/>
<path d="M581.947 845.348L549.657 813.058L593.765 801.239L581.947 845.348Z" stroke="#065DA7" stroke-width="3.29552"/>
<path d="M821.861 845.348L789.572 813.058L833.68 801.239L821.861 845.348Z" stroke="#065DA7" stroke-width="3.29552"/>
</g>
<g opacity="0.02">
<path d="M1150.82 57.342L1185.07 116.661H1116.58L1150.82 57.342Z" fill="#065DA7"/>
<path d="M913.546 36.8901L947.794 96.2096H879.298L913.546 36.8901Z" fill="#065DA7"/>
<path d="M914.41 272.85L948.658 332.169H880.161L914.41 272.85Z" fill="#065DA7"/>
<path d="M1136.32 272.85L1170.57 332.169H1102.08L1136.32 272.85Z" fill="#065DA7"/>
<path d="M1268.18 121.345L1295.22 20.4519L1194.32 47.4861L1198.9 52.0584L1287.3 28.3713L1263.61 116.773L1268.18 121.345Z" fill="#065DA7"/>
<path d="M1258.23 111.391L1277.98 37.6924L1204.28 57.44L1258.23 111.391Z" fill="#065DA7"/>
<path d="M1030.91 100.893L1057.94 0L957.047 27.0342L961.619 31.6065L1050.02 7.91939L1026.33 96.3209L1030.91 100.893Z" fill="#065DA7"/>
<path d="M1020.95 90.9393L1040.7 17.2405L967.001 36.9881L1020.95 90.9393Z" fill="#065DA7"/>
<path d="M1013.77 336.853L1040.8 235.959L939.91 262.994L944.483 267.566L1032.88 243.879L1009.2 332.28L1013.77 336.853Z" fill="#065DA7"/>
<path d="M1003.82 326.899L1023.56 253.2L949.864 272.948L1003.82 326.899Z" fill="#065DA7"/>
<path d="M1253.68 336.853L1280.72 235.959L1179.82 262.994L1184.4 267.566L1272.8 243.879L1249.11 332.28L1253.68 336.853Z" fill="#065DA7"/>
<path d="M1243.73 326.899L1263.48 253.2L1189.78 272.948L1243.73 326.899Z" fill="#065DA7"/>
<path d="M1276.36 202.84L1244.07 170.551L1288.18 158.732L1276.36 202.84Z" stroke="#065DA7" stroke-width="3.29552"/>
<path d="M1039.08 182.388L1006.79 150.099L1050.9 138.28L1039.08 182.388Z" stroke="#065DA7" stroke-width="3.29552"/>
<path d="M1021.95 418.348L989.657 386.058L1033.77 374.239L1021.95 418.348Z" stroke="#065DA7" stroke-width="3.29552"/>
<path d="M1261.86 418.348L1229.57 386.058L1273.68 374.239L1261.86 418.348Z" stroke="#065DA7" stroke-width="3.29552"/>
</g>
<g opacity="0.02">
<path d="M1150.82 484.342L1185.07 543.661H1116.58L1150.82 484.342Z" fill="#065DA7"/>
<path d="M913.546 463.89L947.794 523.21H879.298L913.546 463.89Z" fill="#065DA7"/>
<path d="M914.41 699.85L948.658 759.169H880.161L914.41 699.85Z" fill="#065DA7"/>
<path d="M1136.32 699.85L1170.57 759.169H1102.08L1136.32 699.85Z" fill="#065DA7"/>
<path d="M1268.18 548.345L1295.22 447.452L1194.32 474.486L1198.9 479.058L1287.3 455.371L1263.61 543.773L1268.18 548.345Z" fill="#065DA7"/>
<path d="M1258.23 538.391L1277.98 464.692L1204.28 484.44L1258.23 538.391Z" fill="#065DA7"/>
<path d="M1030.91 527.893L1057.94 427L957.047 454.034L961.619 458.606L1050.02 434.919L1026.33 523.321L1030.91 527.893Z" fill="#065DA7"/>
<path d="M1020.95 517.939L1040.7 444.241L967.001 463.988L1020.95 517.939Z" fill="#065DA7"/>
<path d="M1013.77 763.853L1040.8 662.959L939.91 689.994L944.483 694.566L1032.88 670.879L1009.2 759.28L1013.77 763.853Z" fill="#065DA7"/>
<path d="M1003.82 753.899L1023.56 680.2L949.864 699.948L1003.82 753.899Z" fill="#065DA7"/>
<path d="M1253.68 763.853L1280.72 662.959L1179.82 689.994L1184.4 694.566L1272.8 670.879L1249.11 759.28L1253.68 763.853Z" fill="#065DA7"/>
<path d="M1243.73 753.899L1263.48 680.2L1189.78 699.948L1243.73 753.899Z" fill="#065DA7"/>
<path d="M1276.36 629.84L1244.07 597.551L1288.18 585.732L1276.36 629.84Z" stroke="#065DA7" stroke-width="3.29552"/>
<path d="M1039.08 609.388L1006.79 577.099L1050.9 565.28L1039.08 609.388Z" stroke="#065DA7" stroke-width="3.29552"/>
<path d="M1021.95 845.348L989.657 813.058L1033.77 801.239L1021.95 845.348Z" stroke="#065DA7" stroke-width="3.29552"/>
<path d="M1261.86 845.348L1229.57 813.058L1273.68 801.239L1261.86 845.348Z" stroke="#065DA7" stroke-width="3.29552"/>
</g>
<g opacity="0.02">
<path d="M1353.55 36.8901L1387.79 96.2096H1319.3L1353.55 36.8901Z" fill="#065DA7"/>
<path d="M1354.41 272.85L1388.66 332.169H1320.16L1354.41 272.85Z" fill="#065DA7"/>
<path d="M1470.91 100.893L1497.94 0L1397.05 27.0342L1401.62 31.6065L1490.02 7.91939L1466.33 96.3209L1470.91 100.893Z" fill="#065DA7"/>
<path d="M1460.95 90.9393L1480.7 17.2405L1407 36.9881L1460.95 90.9393Z" fill="#065DA7"/>
<path d="M1453.77 336.853L1480.8 235.959L1379.91 262.994L1384.48 267.566L1472.88 243.879L1449.2 332.28L1453.77 336.853Z" fill="#065DA7"/>
<path d="M1443.82 326.899L1463.56 253.2L1389.86 272.948L1443.82 326.899Z" fill="#065DA7"/>
<path d="M1479.08 182.388L1446.79 150.099L1490.9 138.28L1479.08 182.388Z" stroke="#065DA7" stroke-width="3.29552"/>
<path d="M1461.95 418.348L1429.66 386.058L1473.77 374.239L1461.95 418.348Z" stroke="#065DA7" stroke-width="3.29552"/>
</g>
<g opacity="0.02">
<path d="M1353.55 463.89L1387.79 523.21H1319.3L1353.55 463.89Z" fill="#065DA7"/>
<path d="M1354.41 699.85L1388.66 759.169H1320.16L1354.41 699.85Z" fill="#065DA7"/>
<path d="M1470.91 527.893L1497.94 427L1397.05 454.034L1401.62 458.606L1490.02 434.919L1466.33 523.321L1470.91 527.893Z" fill="#065DA7"/>
<path d="M1460.95 517.939L1480.7 444.241L1407 463.988L1460.95 517.939Z" fill="#065DA7"/>
<path d="M1453.77 763.853L1480.8 662.959L1379.91 689.994L1384.48 694.566L1472.88 670.879L1449.2 759.28L1453.77 763.853Z" fill="#065DA7"/>
<path d="M1443.82 753.899L1463.56 680.2L1389.86 699.948L1443.82 753.899Z" fill="#065DA7"/>
<path d="M1479.08 609.388L1446.79 577.099L1490.9 565.28L1479.08 609.388Z" stroke="#065DA7" stroke-width="3.29552"/>
<path d="M1461.95 845.348L1429.66 813.058L1473.77 801.239L1461.95 845.348Z" stroke="#065DA7" stroke-width="3.29552"/>
</g>
</svg>
