<svg width="24" height="24" viewBox="0 0 24 24" fill="none" xmlns="http://www.w3.org/2000/svg">
<path d="M17.4297 19.4047L17.4282 19.4037L13.1301 16.4654C13.1299 16.4652 13.1296 16.4651 13.1294 16.4649C12.7969 16.2361 12.3854 16.1372 12 16.1372C11.6146 16.1372 11.2031 16.2361 10.8706 16.4649C10.8704 16.4651 10.8701 16.4652 10.8699 16.4654L6.57428 19.402C6.54731 19.4199 6.52251 19.4348 6.5 19.447V4.82982C6.5 4.81956 6.50652 4.7514 6.63451 4.66377C6.75912 4.57846 6.95765 4.51 7.1985 4.51H7.42322C7.45966 4.51 7.49186 4.50686 7.51946 4.50261C7.52489 4.50177 7.53016 4.50088 7.5351 4.5H16.4499C16.4549 4.50088 16.4601 4.50177 16.4656 4.50261C16.4932 4.50686 16.5254 4.51 16.5618 4.51H16.7865C17.0269 4.51 17.2264 4.57825 17.354 4.6649C17.4775 4.74873 17.4975 4.81938 17.5 4.84261V19.4487C17.4786 19.4368 17.4552 19.4223 17.4297 19.4047Z" stroke="#3366FF"/>
</svg>
