<svg width="166" height="36" viewBox="0 0 166 36" fill="none" xmlns="http://www.w3.org/2000/svg">
<path d="M12.7965 15.1826H7.89935V24.3587C7.89935 25.1488 8.08335 25.7156 8.45242 26.0602C8.82095 26.4043 9.36699 26.5953 10.0911 26.6338C10.8152 26.6723 11.7168 26.6656 12.7965 26.6146V30.3232C9.53156 30.7058 7.1882 30.4315 5.76642 29.5013C4.34464 28.5712 3.63348 26.8571 3.63348 24.3592V15.1831H0V11.2069H3.63348V7.07767L7.89935 5.85447V11.2069H12.7965V15.1831V15.1826ZM25.1905 10.7093C27.4546 10.7093 29.2848 11.4104 30.6801 12.8122C32.0755 14.2139 32.7731 16.1387 32.7731 18.5852V30.3227H28.5073V19.0057C28.5073 17.5785 28.1128 16.4823 27.3224 15.7177C26.5324 14.953 25.4533 14.5704 24.0839 14.5704C22.5833 14.5704 21.372 15.0228 20.4504 15.9279C19.5288 16.8326 19.068 18.2151 19.068 20.0759V30.3222H14.8027V3.55953H19.068V13.6528C20.3581 11.6904 22.3988 10.7088 25.1894 10.7088L25.1905 10.7093ZM39.7563 14.4179C40.8354 12.0475 42.8632 10.8623 45.8384 10.8623V15.3356C44.2062 15.2336 42.7838 15.6094 41.573 16.4635C40.3622 17.3177 39.7563 18.7257 39.7563 20.6885V30.3232H35.491V11.2069H39.7563V14.4185V14.4179ZM51.1823 7.55498C50.6427 8.07757 50.0044 8.33887 49.2668 8.33887C48.5298 8.33887 47.8909 8.07757 47.3513 7.55498C46.8118 7.03238 46.542 6.41454 46.542 5.70091C46.542 4.98729 46.8053 4.36893 47.3319 3.84633C47.8585 3.32374 48.5033 3.06244 49.2668 3.06244C50.0303 3.06244 50.6756 3.32374 51.2023 3.84633C51.7289 4.36893 51.9922 4.98677 51.9922 5.70091C51.9922 6.41454 51.7224 7.0329 51.1828 7.55498H51.1823ZM47.1344 30.3227V11.2064H51.3997V30.3227H47.1344ZM64.8599 10.7093C67.124 10.7093 68.9542 11.4104 70.3496 12.8122C71.7449 14.2139 72.4426 16.1387 72.4426 18.5852V30.3227H68.1767V19.0057C68.1767 17.5785 67.7823 16.4823 66.9918 15.7177C66.2019 14.953 65.1227 14.5704 63.7533 14.5704C62.2527 14.5704 61.0414 15.0228 60.1198 15.9279C59.1982 16.8326 58.7374 18.2151 58.7374 20.0759V30.3222H54.4721V11.2059H58.7374V13.6528C60.0275 11.6904 62.0682 10.7088 64.8589 10.7088L64.8599 10.7093ZM90.8005 3.56005H95.0658V30.3227H90.8005V27.5697C89.1942 29.7361 86.8907 30.8193 83.8891 30.8193C81.1772 30.8193 78.8603 29.8443 76.9378 27.8945C75.0158 25.9447 74.0548 23.568 74.0548 20.764C74.0548 17.935 75.0158 15.5516 76.9378 13.6148C78.8597 11.6774 81.1766 10.7093 83.8891 10.7093C86.8907 10.7093 89.1942 11.78 90.8005 13.9208V3.55953V3.56005ZM80.0975 25.142C81.2824 26.3017 82.77 26.8816 84.5603 26.8816C86.3506 26.8816 87.8382 26.3017 89.0231 25.142C90.208 23.9823 90.8005 22.5233 90.8005 20.7645C90.8005 19.0057 90.208 17.5467 89.0231 16.387C87.8382 15.2273 86.3506 14.6475 84.5603 14.6475C82.7695 14.6475 81.2824 15.2273 80.0975 16.387C78.9126 17.5467 78.3201 19.0057 78.3201 20.7645C78.3201 22.5233 78.9126 23.9823 80.0975 25.142ZM98.1781 30.3227V2.41284H102.443V30.3227H98.1781ZM108.873 22.5233C109.189 23.9761 109.914 25.091 111.046 25.8687C112.178 26.6458 113.56 27.0346 115.192 27.0346C117.456 27.0346 119.155 26.2445 120.288 24.6642L123.802 26.6526C121.854 29.4305 118.971 30.8198 115.153 30.8198C111.941 30.8198 109.348 29.8704 107.372 27.9716C105.398 26.0727 104.411 23.6706 104.411 20.7645C104.411 17.91 105.385 15.5204 107.334 13.596C109.282 11.6717 111.783 10.7093 114.837 10.7093C117.734 10.7093 120.11 11.6904 121.966 13.6533C123.822 15.6156 124.75 17.9991 124.75 20.8025C124.75 21.2356 124.698 21.8092 124.592 22.5228H108.873V22.5233ZM108.834 19.1588H120.446C120.156 17.604 119.491 16.4318 118.451 15.6417C117.411 14.8515 116.194 14.4565 114.799 14.4565C113.219 14.4565 111.902 14.877 110.849 15.7182C109.796 16.5593 109.124 17.7065 108.835 19.1593L108.834 19.1588Z" fill="#065DA7"/>
<path fill-rule="evenodd" clip-rule="evenodd" d="M132.67 18.5487L148.86 0.417168C149.308 -0.0851259 150.098 -0.141861 150.619 0.290684L152.851 2.14527C153.354 2.56376 153.429 3.28727 153.023 3.79373C146.065 12.4509 147.491 24.1156 155.272 31.917C155.72 32.3652 155.74 33.0626 155.319 33.5353L153.496 35.5814C153.263 35.8432 152.96 35.9843 152.603 35.9989C152.245 36.0129 151.932 35.8968 151.676 35.6548C146.868 31.0951 143.799 25.7109 142.952 18.1302C142.898 17.643 142.568 17.2557 142.083 17.1105C141.598 16.9648 141.099 17.1027 140.767 17.4738L136.767 21.9534C136.319 22.4557 135.53 22.5124 135.009 22.0798L132.801 20.2456C132.281 19.813 132.222 19.051 132.67 18.5492V18.5487ZM157.818 13.2499L161.902 16.6431C162.422 17.0756 163.212 17.0189 163.661 16.5166L165.609 14.3351C166.058 13.8334 165.998 13.0708 165.478 12.6388L155.774 4.57554C155.493 4.34183 155.156 4.24606 154.788 4.29551C154.42 4.34495 154.123 4.52609 153.919 4.82539C147.736 13.8766 148.388 22.8715 156.218 30.5147C156.473 30.7625 156.788 30.8833 157.15 30.8713C157.511 30.8593 157.817 30.7172 158.052 30.4523L159.81 28.4759C160.24 27.9923 160.205 27.272 159.731 26.8285C155.77 23.1282 154.556 18.7881 155.793 13.8776C155.898 13.4591 156.198 13.1479 156.623 13.0167C157.048 12.8845 157.479 12.9688 157.818 13.2504V13.2499Z" fill="#FE9800"/>
</svg>
