
<svg width="149" height="65" viewBox="0 0 149 65" fill="none" xmlns="http://www.w3.org/2000/svg">
<path d="M39.3728 1.32876V40.8532C39.3728 41.5853 38.7758 42.182 38.0441 42.182H36.4835C35.7514 42.182 35.1547 41.5849 35.1547 40.8532V11.2014C35.1547 10.5953 34.7642 10.0819 34.1797 9.9206C33.5951 9.75927 32.9964 9.99924 32.6855 10.52L20.3909 31.0943H19.7885L7.49419 10.52C7.18301 9.99958 6.58462 9.75927 6.00006 9.9206C5.4155 10.0819 5.02501 10.5953 5.02501 11.2014V40.8532C5.02501 41.5853 4.42796 42.182 3.69625 42.182H2.13564C1.40359 42.182 0.806885 41.5849 0.806885 40.8532V1.32876C0.806885 0.596712 1.40393 0 2.13564 0H5.22549C5.70643 0 6.1192 0.234234 6.36592 0.647002L18.9494 21.7032C19.1961 22.116 19.6093 22.3502 20.0902 22.3506C20.5711 22.3506 20.9842 22.1163 21.231 21.7032L33.8145 0.647002C34.0612 0.234234 34.4739 0 34.9549 0H38.0448C38.7768 0 39.3735 0.597049 39.3735 1.32876H39.3728Z" fill="#065DA7"/>
<path d="M131.967 7.76043C136.828 7.76043 140.758 9.47934 143.758 12.9172C146.736 16.3307 148.237 20.3595 148.257 25.0032C148.26 25.5905 148.052 26.0967 147.638 26.5129C147.223 26.929 146.718 27.1389 146.131 27.1389H121.959C121.246 27.1389 120.634 27.4558 120.223 28.0374C119.812 28.6185 119.717 29.3017 119.954 29.973C120.671 32.002 121.861 33.696 123.525 35.0544C125.912 37.0032 128.857 37.9775 132.36 37.9775C134.856 37.9775 137.013 37.4629 138.831 36.4338C140.073 35.7304 141.105 34.8786 141.928 33.8789C142.597 33.0658 143.737 32.863 144.645 33.3956L144.708 33.4327C145.275 33.7648 145.628 34.2805 145.732 34.9289C145.837 35.5772 145.664 36.1776 145.23 36.6707C144.012 38.0555 142.547 39.2138 140.834 40.145C138.338 41.5024 135.492 42.1812 132.295 42.1812C127.127 42.1812 122.923 40.5608 119.682 37.3201C116.441 34.0794 114.821 29.9628 114.821 24.9705C114.821 20.0655 116.419 15.9709 119.616 12.6863C122.813 9.40206 126.93 7.75977 131.966 7.75977L131.967 7.76043ZM131.967 11.9644C128.551 11.9644 125.693 12.9826 123.394 15.0191C121.806 16.4255 120.662 18.1195 119.962 20.1003C119.725 20.7716 119.819 21.4547 120.231 22.0362C120.642 22.6177 121.254 22.9346 121.966 22.9346H141.172C141.87 22.9346 142.471 22.6302 142.885 22.0673C143.299 21.504 143.409 20.8394 143.2 20.1728C142.522 18.0071 141.383 16.2345 139.784 14.8548C137.55 12.928 134.944 11.9644 131.967 11.9644Z" fill="#065DA7"/>
<path d="M74.3074 27.5514C73.9705 22.1381 75.7549 17.4883 79.4965 13.7991C86.8548 6.54408 98.6965 6.54948 106.052 13.8011C119.692 27.2463 104.507 51.3339 85.3596 43.5889V61.8816C85.3596 63.0825 84.3859 64.0562 83.1851 64.0562C81.9843 64.0562 81.0106 63.0825 81.0106 61.8816V40.1008H81.0187C81.0166 38.447 82.8267 37.3788 84.281 38.232C89.3132 41.1842 94.7737 41.7066 99.5298 38.8983C106.966 34.5077 109.957 23.7396 103.011 16.8926C97.3434 11.3049 88.2034 11.3039 82.5374 16.8906C79.3986 19.9852 78.2234 23.7929 78.7273 28.0438C78.9362 29.8076 78.9443 31.1849 78.5404 32.9481C75.5291 46.0837 58.149 50.88 48.0668 40.7977C40.8432 33.5741 40.8428 21.8634 48.0668 14.6398C55.4311 7.27545 67.3909 7.45972 74.5369 14.9672C75.3624 15.8349 75.328 17.2079 74.4606 18.0334C73.5929 18.8589 72.2199 18.8245 71.3944 17.9568C65.9282 12.2145 56.7673 12.0889 51.1418 17.7145C42.3326 26.5237 48.3661 42.061 61.6118 41.8669C65.3365 41.7535 68.5853 40.2554 70.8999 38.0052C72.9442 36.018 74.249 33.4472 74.4859 30.7452C74.5602 29.652 74.3708 28.546 74.3077 27.5514H74.3074ZM52.9228 28.7873L60.3489 19.4708C60.5544 19.213 60.9328 19.1701 61.1906 19.376L62.2969 20.2579C62.5464 20.4567 62.596 20.8154 62.4103 21.0747C59.2354 25.5088 60.141 31.2858 64.0233 35.0247C64.2467 35.2397 64.2697 35.586 64.0766 35.8286L63.2406 36.88C63.1336 37.0143 62.9912 37.0902 62.8198 37.1041C62.6486 37.1179 62.4957 37.0659 62.3685 36.9498C59.9746 34.7692 58.3994 32.1472 57.849 28.3911C57.8139 28.1498 57.6482 27.9631 57.4126 27.8997C57.177 27.8362 56.9401 27.9138 56.7882 28.1045L54.9535 30.4063C54.748 30.6642 54.37 30.707 54.1118 30.5011L53.0173 29.6287C52.7594 29.4232 52.7166 29.0452 52.9224 28.7873H52.9228ZM64.8917 25.691L66.9157 27.3043C67.1736 27.5098 67.5515 27.467 67.7571 27.2091L68.6508 26.0879C68.8564 25.8301 68.8135 25.4517 68.5556 25.2462L63.7462 21.4125C63.6065 21.3015 63.4431 21.2599 63.2676 21.2913C63.0918 21.3227 62.9527 21.4182 62.8606 21.5708C60.0647 26.1865 60.548 30.6496 64.4512 34.3092C64.5781 34.428 64.7317 34.4823 64.9048 34.4695C65.078 34.4567 65.2221 34.3808 65.3301 34.2444L66.1361 33.2289C66.3335 32.9808 66.3031 32.6227 66.0669 32.4111C64.0955 30.6426 63.431 28.5058 63.9315 26.04C63.9744 25.8298 64.1121 25.6698 64.3139 25.5965C64.5154 25.5233 64.7239 25.557 64.892 25.691H64.8917Z" fill="#FE9800"/>
<path d="M47.0182 5.80913C46.465 5.80913 45.9993 5.68527 45.6216 5.43787C45.2439 5.19048 44.978 4.85399 44.8237 4.42839L45.7654 3.87793C45.9834 4.4473 46.4117 4.73181 47.0503 4.73181C47.3587 4.73181 47.5848 4.67612 47.7286 4.56441C47.8724 4.4527 47.944 4.31162 47.944 4.14152C47.944 3.94475 47.8562 3.79187 47.6807 3.68285C47.5052 3.57384 47.1913 3.45537 46.7391 3.3278C46.489 3.25321 46.2777 3.17895 46.1046 3.10436C45.9318 3.03011 45.759 2.93022 45.5858 2.805C45.413 2.68013 45.2814 2.52183 45.1909 2.33013C45.1005 2.13843 45.0553 1.915 45.0553 1.65984C45.0553 1.1546 45.2348 0.751626 45.5939 0.45091C45.953 0.150193 46.385 0 46.8906 0C47.3429 0 47.7404 0.110366 48.0837 0.331094C48.4269 0.551822 48.6942 0.85929 48.8856 1.25282L47.9598 1.78742C47.7364 1.3085 47.38 1.06921 46.8906 1.06921C46.6618 1.06921 46.4822 1.12119 46.3519 1.2248C46.2217 1.32842 46.1565 1.46308 46.1565 1.62778C46.1565 1.80329 46.2298 1.94572 46.3759 2.05473C46.522 2.16375 46.8029 2.28221 47.2177 2.40979C47.3878 2.46311 47.517 2.50429 47.6048 2.53365C47.6925 2.56301 47.8123 2.60824 47.9639 2.66933C48.1154 2.73041 48.2325 2.78779 48.3152 2.84078C48.3976 2.89411 48.4921 2.96565 48.5984 3.05644C48.7047 3.14689 48.786 3.24005 48.8417 3.3359C48.8977 3.43141 48.9453 3.54718 48.9855 3.68285C49.0257 3.81853 49.0456 3.96601 49.0456 4.12565C49.0456 4.6417 48.8579 5.05143 48.483 5.35451C48.108 5.65759 47.6199 5.80947 47.0185 5.80947L47.0182 5.80913ZM57.5986 4.64406H59.9527V5.69741H56.4977V0.111716H59.9129V1.16507H57.5986V2.35409H59.7134V3.39158H57.5986V4.6444V4.64406ZM70.7326 0.111378H71.8339V5.69708H70.9962L68.6023 2.28153V5.69708H67.501V0.111378H68.3373L70.7326 3.51478V0.111378ZM81.8635 0.111378C82.6296 0.111378 83.2692 0.380028 83.7825 0.917335C84.2959 1.45464 84.5524 2.11683 84.5524 2.90423C84.5524 3.69162 84.2959 4.35381 83.7825 4.89112C83.2692 5.42843 82.6293 5.69708 81.8635 5.69708H79.6451V0.111378H81.8635ZM81.8635 4.64406C82.3475 4.64406 82.7413 4.48307 83.0444 4.16109C83.3475 3.83911 83.4994 3.42027 83.4994 2.90423C83.4994 2.38818 83.3478 1.96934 83.0444 1.64736C82.7413 1.32538 82.3475 1.16473 81.8635 1.16473H80.7463V4.64406H81.8635Z" fill="#065DA7"/>
</svg>
