<svg width="194" height="55" viewBox="0 0 194 55" fill="none" xmlns="http://www.w3.org/2000/svg">
<path d="M14.8955 18.3495H9.19505V29.4219C9.19505 30.3753 9.40923 31.0593 9.83883 31.4751C10.2678 31.8902 10.9034 32.1208 11.7463 32.1672C12.5892 32.2137 13.6387 32.2055 14.8955 32.144V36.619C11.095 37.0807 8.36725 36.7497 6.71226 35.6273C5.05728 34.5049 4.22947 32.4367 4.22947 29.4225V18.3502H0V13.5523H4.22947V8.56975L9.19505 7.09376V13.5523H14.8955V18.3502V18.3495ZM29.3224 12.9518C31.9578 12.9518 34.0883 13.7979 35.7125 15.4893C37.3367 17.1807 38.1488 19.5033 38.1488 22.4553V36.6184H33.1832V22.9628C33.1832 21.2406 32.7241 19.9178 31.804 18.9952C30.8844 18.0726 29.6283 17.6109 28.0342 17.6109C26.2875 17.6109 24.8775 18.1567 23.8048 19.2489C22.732 20.3405 22.1956 22.0087 22.1956 24.2541V36.6178H17.2307V4.32457H22.1956V16.5036C23.6974 14.1358 26.0727 12.9512 29.3212 12.9512L29.3224 12.9518ZM46.2774 17.4269C47.5335 14.5666 49.8938 13.1365 53.3571 13.1365V18.5342C51.4571 18.4111 49.8015 18.8646 48.3921 19.8952C46.9827 20.9259 46.2774 22.6249 46.2774 24.9933V36.619H41.3124V13.5523H46.2774V17.4275V17.4269ZM59.5775 9.14569C58.9495 9.77628 58.2064 10.0916 57.3479 10.0916C56.4899 10.0916 55.7463 9.77628 55.1182 9.14569C54.4901 8.5151 54.1761 7.76957 54.1761 6.90848C54.1761 6.04738 54.4826 5.30123 55.0956 4.67064C55.7086 4.04005 56.4591 3.72476 57.3479 3.72476C58.2366 3.72476 58.9878 4.04005 59.6008 4.67064C60.2138 5.30123 60.5203 6.04675 60.5203 6.90848C60.5203 7.76957 60.2062 8.51573 59.5782 9.14569H59.5775ZM54.8657 36.6184V13.5517H59.8307V36.6184H54.8657ZM75.4987 12.9518C78.1341 12.9518 80.2645 13.7979 81.8887 15.4893C83.5129 17.1807 84.325 19.5033 84.325 22.4553V36.6184H79.3595V22.9628C79.3595 21.2406 78.9003 19.9178 77.9802 18.9952C77.0607 18.0726 75.8045 17.6109 74.2105 17.6109C72.4638 17.6109 71.0538 18.1567 69.981 19.2489C68.9083 20.3405 68.3719 22.0087 68.3719 24.2541V36.6178H63.4069V13.551H68.3719V16.5036C69.8736 14.1358 72.249 12.9512 75.4974 12.9512L75.4987 12.9518ZM105.694 4.3252H110.659V36.6184H105.694V33.2965C103.824 35.9106 101.143 37.2176 97.6491 37.2176C94.4923 37.2176 91.7954 36.0412 89.5576 33.6884C87.3203 31.3357 86.2017 28.4679 86.2017 25.0844C86.2017 21.6708 87.3203 18.7948 89.5576 16.4578C91.7948 14.1201 94.4917 12.9518 97.6491 12.9518C101.143 12.9518 103.824 14.2438 105.694 16.8271V4.32457V4.3252ZM93.2356 30.3672C94.6148 31.7665 96.3464 32.4662 98.4304 32.4662C100.514 32.4662 102.246 31.7665 103.625 30.3672C105.004 28.9678 105.694 27.2073 105.694 25.085C105.694 22.9628 105.004 21.2023 103.625 19.8029C102.246 18.4035 100.514 17.7039 98.4304 17.7039C96.3458 17.7039 94.6148 18.4035 93.2356 19.8029C91.8563 21.2023 91.1667 22.9628 91.1667 25.085C91.1667 27.2073 91.8563 28.9678 93.2356 30.3672ZM114.282 36.6184V2.94092H119.247V36.6184H114.282ZM126.732 27.2073C127.099 28.9603 127.942 30.3056 129.26 31.244C130.578 32.1817 132.187 32.6509 134.087 32.6509C136.722 32.6509 138.7 31.6974 140.018 29.7906L144.109 32.1898C141.841 35.5419 138.485 37.2182 134.041 37.2182C130.302 37.2182 127.284 36.0726 124.984 33.7814C122.686 31.4902 121.537 28.5916 121.537 25.085C121.537 21.6407 122.671 18.7572 124.939 16.4352C127.207 14.1132 130.119 12.9518 133.674 12.9518C137.045 12.9518 139.811 14.1358 141.972 16.5042C144.132 18.8721 145.213 21.7481 145.213 25.1309C145.213 25.6534 145.151 26.3456 145.029 27.2067H126.732V27.2073ZM126.686 23.1474H140.202C139.865 21.2713 139.091 19.8569 137.881 18.9035C136.67 17.9501 135.253 17.4734 133.628 17.4734C131.789 17.4734 130.257 17.9809 129.031 18.9958C127.805 20.0108 127.024 21.3951 126.686 23.148L126.686 23.1474Z" fill="#065DA7"/>
<path d="M84.6578 44.2014C85.9083 44.2014 86.9747 44.6762 87.8572 45.6265C88.7396 46.5761 89.1812 47.7387 89.1812 49.1136C89.1812 50.4884 88.7396 51.6504 87.8572 52.6006C86.9747 53.5503 85.9083 54.0258 84.6578 54.0258C83.1033 54.0258 81.9225 53.3386 81.116 51.9638V53.8009H79.9585V40.6779H81.116V46.2646C81.9225 44.8897 83.1033 44.2026 84.6578 44.2026V44.2014ZM82.1153 51.7471C82.7817 52.4656 83.6001 52.8255 84.5698 52.8255C85.5402 52.8255 86.3586 52.4662 87.0244 51.7471C87.6908 51.0286 88.0236 50.1505 88.0236 49.1136C88.0236 48.076 87.6908 47.1979 87.0244 46.4794C86.358 45.7609 85.5402 45.401 84.5698 45.401C83.6001 45.401 82.7817 45.7603 82.1153 46.4794C81.4489 47.1979 81.116 48.076 81.116 49.1136C81.116 50.1512 81.4489 51.0286 82.1153 51.7471ZM96.5492 44.4262H97.7061V53.7997H96.5492V52.3375C95.8941 53.4624 94.9124 54.0245 93.6035 54.0245C92.5395 54.0245 91.701 53.6778 91.0874 52.9838C90.4738 52.2904 90.1673 51.3558 90.1673 50.1813V44.4262H91.3248V50.1813C91.3248 51.0185 91.5321 51.6686 91.9472 52.1308C92.3624 52.5931 92.9496 52.8242 93.7096 52.8242C94.5512 52.8242 95.2346 52.5397 95.7609 51.9713C96.2866 51.4023 96.5498 50.5249 96.5498 49.3372V44.4256L96.5492 44.4262ZM100.34 46.8569C100.34 47.2758 100.518 47.6068 100.872 47.8536C101.228 48.0973 101.658 48.2977 102.16 48.4503C102.663 48.6067 103.165 48.76 103.668 48.9126C104.171 49.0658 104.595 49.3441 104.94 49.7435C105.288 50.1467 105.46 50.6743 105.46 51.3244C105.46 52.1239 105.164 52.774 104.574 53.2739C103.984 53.7739 103.221 54.0239 102.286 54.0239C101.444 54.0239 100.728 53.8235 100.138 53.4241C99.5476 53.024 99.1356 52.5052 98.9019 51.8677L99.8836 51.249C100.048 51.7364 100.342 52.1208 100.769 52.4022C101.196 52.6836 101.701 52.8242 102.286 52.8242C102.858 52.8242 103.338 52.7024 103.724 52.4587C104.109 52.215 104.302 51.8369 104.302 51.3244C104.302 50.8992 104.127 50.5651 103.776 50.3151C103.426 50.0651 103 49.8622 102.496 49.709C101.994 49.5557 101.492 49.4031 100.988 49.2499C100.486 49.0966 100.059 48.8221 99.7084 48.4283C99.3579 48.0345 99.1827 47.5189 99.1827 46.882C99.1827 46.1195 99.466 45.482 100.033 44.9701C100.6 44.4576 101.316 44.2014 102.181 44.2014C102.894 44.2014 103.52 44.3735 104.057 44.717C104.595 45.0606 104.992 45.5266 105.249 46.1139L104.285 46.7137C103.947 45.8388 103.245 45.4016 102.181 45.4016C101.679 45.4016 101.246 45.5266 100.884 45.7797C100.521 46.0328 100.34 46.3921 100.34 46.8581V46.8569ZM107.743 42.1764C107.579 42.3517 107.38 42.439 107.146 42.439C106.912 42.439 106.713 42.3517 106.55 42.1764C106.387 42.0018 106.304 41.7889 106.304 41.5389C106.304 41.289 106.386 41.0767 106.55 40.9015C106.714 40.7262 106.912 40.6389 107.146 40.6389C107.38 40.6389 107.579 40.7262 107.743 40.9015C107.906 41.0767 107.988 41.289 107.988 41.5389C107.988 41.7889 107.907 42.0012 107.743 42.1764ZM106.568 53.7997V44.4262H107.725V53.7997H106.568ZM113.55 44.2014C114.614 44.2014 115.452 44.5481 116.066 45.2421C116.68 45.9355 116.987 46.8701 116.987 48.0446V53.7997H115.829V48.0446C115.829 47.2074 115.622 46.5573 115.207 46.095C114.792 45.6328 114.204 45.4016 113.444 45.4016C112.603 45.4016 111.919 45.6861 111.393 46.2546C110.867 46.8236 110.604 47.701 110.604 48.8887V53.8003H109.446V44.4269H110.604V45.889C111.258 44.7641 112.24 44.202 113.549 44.202L113.55 44.2014ZM122.548 44.2014C123.845 44.2014 124.895 44.6919 125.696 45.673C126.497 46.654 126.897 47.8128 126.897 49.1506C126.897 49.2882 126.885 49.4822 126.861 49.7316H119.164C119.281 50.6819 119.658 51.4343 120.295 51.9908C120.932 52.5466 121.718 52.8249 122.653 52.8249C123.32 52.8249 123.896 52.6779 124.381 52.384C124.865 52.09 125.231 51.7056 125.476 51.2308L126.493 51.8683C126.107 52.5309 125.581 53.056 124.914 53.4429C124.248 53.8304 123.489 54.0239 122.635 54.0239C121.256 54.0239 120.133 53.5616 119.269 52.6364C118.404 51.7113 117.971 50.5368 117.971 49.1123C117.971 47.7123 118.397 46.5441 119.251 45.6064C120.105 44.6693 121.203 44.2001 122.547 44.2001L122.548 44.2014ZM122.548 45.401C121.636 45.401 120.874 45.6918 120.26 46.2728C119.647 46.8537 119.281 47.6068 119.165 48.5313H125.705C125.588 47.544 125.232 46.7752 124.636 46.2257C124.039 45.6755 123.344 45.401 122.549 45.401H122.548ZM128.566 46.8575C128.566 47.2764 128.744 47.6074 129.098 47.8543C129.455 48.098 129.884 48.2983 130.387 48.4509C130.89 48.6073 131.392 48.7606 131.895 48.9132C132.398 49.0665 132.821 49.3447 133.166 49.7442C133.514 50.1474 133.686 50.675 133.686 51.325C133.686 52.1246 133.391 52.7746 132.801 53.2746C132.21 53.7745 131.448 54.0245 130.512 54.0245C129.671 54.0245 128.955 53.8241 128.364 53.4247C127.774 53.0246 127.362 52.5058 127.128 51.8683L128.11 51.2497C128.274 51.737 128.569 52.1214 128.996 52.4028C129.423 52.6842 129.928 52.8249 130.512 52.8249C131.085 52.8249 131.564 52.703 131.95 52.4593C132.336 52.2156 132.529 51.8375 132.529 51.325C132.529 50.8998 132.353 50.5657 132.003 50.3157C131.652 50.0657 131.225 49.8629 130.723 49.7096C130.22 49.5564 129.718 49.4037 129.215 49.2505C128.712 49.0972 128.285 48.8228 127.935 48.429C127.584 48.0352 127.409 47.5195 127.409 46.8826C127.409 46.1201 127.692 45.4826 128.26 44.9708C128.827 44.4583 129.543 44.202 130.408 44.202C131.12 44.202 131.746 44.3741 132.284 44.7176C132.821 45.0612 133.219 45.5272 133.476 46.1145L132.512 46.7143C132.173 45.8394 131.472 45.4023 130.408 45.4023C129.905 45.4023 129.472 45.5272 129.111 45.7804C128.748 46.0335 128.567 46.3927 128.567 46.8588L128.566 46.8575ZM135.267 46.8575C135.267 47.2764 135.445 47.6074 135.799 47.8543C136.156 48.098 136.585 48.2983 137.088 48.4509C137.59 48.6073 138.093 48.7606 138.596 48.9132C139.098 49.0665 139.522 49.3447 139.867 49.7442C140.215 50.1474 140.387 50.675 140.387 51.325C140.387 52.1246 140.092 52.7746 139.501 53.2746C138.912 53.7745 138.149 54.0245 137.213 54.0245C136.372 54.0245 135.656 53.8241 135.065 53.4247C134.475 53.0246 134.063 52.5058 133.829 51.8683L134.811 51.2497C134.975 51.737 135.27 52.1214 135.697 52.4028C136.124 52.6842 136.629 52.8249 137.213 52.8249C137.786 52.8249 138.265 52.703 138.651 52.4593C139.037 52.2156 139.23 51.8375 139.23 51.325C139.23 50.8998 139.055 50.5657 138.704 50.3157C138.354 50.0657 137.927 49.8629 137.424 49.7096C136.922 49.5564 136.42 49.4037 135.916 49.2505C135.414 49.0972 134.987 48.8228 134.636 48.429C134.286 48.0352 134.111 47.5195 134.111 46.8826C134.111 46.1201 134.394 45.4826 134.961 44.9708C135.528 44.4583 136.244 44.202 137.109 44.202C137.822 44.202 138.448 44.3741 138.985 44.7176C139.523 45.0612 139.92 45.5272 140.177 46.1145L139.213 46.7143C138.874 45.8394 138.172 45.4023 137.109 45.4023C136.606 45.4023 136.173 45.5272 135.811 45.7804C135.448 46.0335 135.267 46.3927 135.267 46.8588V46.8575Z" fill="#065DA7"/>
<path fill-rule="evenodd" clip-rule="evenodd" d="M154.431 22.4123L173.276 0.533895C173.798 -0.0721998 174.718 -0.14066 175.324 0.381272L177.922 2.61911C178.508 3.12409 178.595 3.99711 178.122 4.60823C170.023 15.0544 171.684 29.1296 180.74 38.5433C181.262 39.084 181.285 39.9256 180.795 40.4959L178.673 42.9649C178.402 43.2808 178.05 43.451 177.633 43.4686C177.217 43.4856 176.852 43.3455 176.555 43.0535C170.958 37.5515 167.385 31.0547 166.399 21.9074C166.337 21.3195 165.953 20.8522 165.388 20.677C164.824 20.5011 164.242 20.6675 163.856 21.1154L159.2 26.5206C158.679 27.1267 157.76 27.1951 157.154 26.6732L154.583 24.4599C153.978 23.9379 153.91 23.0184 154.431 22.413V22.4123ZM183.704 16.0185L188.458 20.113C189.064 20.6349 189.983 20.5664 190.505 19.9603L192.773 17.3281C193.295 16.7226 193.226 15.8025 192.62 15.2811L181.325 5.55161C180.997 5.2696 180.605 5.15403 180.177 5.2137C179.749 5.27337 179.403 5.49194 179.166 5.85308C171.968 16.7747 172.727 27.6285 181.842 36.8512C182.138 37.1502 182.505 37.2959 182.926 37.2814C183.347 37.267 183.703 37.0955 183.977 36.7758L186.023 34.391C186.523 33.8075 186.483 32.9383 185.93 32.4032C181.319 27.9382 179.907 22.7013 181.346 16.776C181.47 16.271 181.818 15.8954 182.313 15.7371C182.808 15.5776 183.31 15.6793 183.704 16.0191V16.0185Z" fill="#FE9800"/>
</svg>
