<svg width="189" height="48" viewBox="0 0 189 48" fill="none" xmlns="http://www.w3.org/2000/svg">
<path d="M99.0576 4.95592H95.8556V9.39937C95.8556 9.80042 95.9342 10.0864 96.0903 10.2574C96.247 10.4283 96.4812 10.5166 96.7945 10.5212C97.1073 10.5263 97.4982 10.5189 97.9676 10.499V11.3496C96.941 11.5063 96.1712 11.4328 95.6579 11.1297C95.1445 10.8266 94.8881 10.25 94.8881 9.39937V4.95592H93.3481V4.01703H94.8881V1.1667L95.8556 1.15793V4.01703H99.0576V4.95592ZM125.672 11.1852C125.144 10.9532 124.675 10.5873 124.304 10.1474V11.3496H123.336V1.08399H124.304V5.2955C125.089 4.36726 126.03 3.84099 127.266 3.84099C128.312 3.84099 129.204 4.21249 129.942 4.95592C130.681 5.69888 131.05 6.60818 131.05 7.68381C131.05 8.75945 130.681 9.66872 129.942 10.4117C128.882 11.479 127.047 11.8565 125.672 11.1856V11.1852ZM125.212 9.74543C125.758 10.2976 126.428 10.5739 127.222 10.5739C128.016 10.5739 128.686 10.2976 129.231 9.74543C129.776 9.19329 130.049 8.51871 130.049 7.72169C130.049 6.92467 129.776 6.2501 129.231 5.69796C128.686 5.14582 128.016 4.86951 127.222 4.86951C126.428 4.86951 125.758 5.14582 125.212 5.69796C124.667 6.2501 124.395 6.92467 124.395 7.72169C124.395 8.51871 124.667 9.19329 125.212 9.74543ZM101.979 3.84099C102.869 3.84099 103.57 4.11222 104.083 4.65512C104.597 5.19755 104.853 5.92851 104.853 6.84751V11.3496H103.885V6.84751C103.885 6.19234 103.712 5.68408 103.365 5.3223C103.018 4.96052 102.527 4.77988 101.891 4.77988C101.188 4.77988 100.616 5.00212 100.176 5.44706C99.7358 5.89201 99.5159 6.57859 99.5159 7.5073V11.3496H98.548V1.08399H99.5159V5.16106C100.063 4.28133 100.884 3.84099 101.98 3.84099H101.979ZM106.664 5.23407C107.113 4.34418 107.885 3.89967 108.981 3.89967V4.83808C108.316 4.83808 107.763 5.03354 107.324 5.42489C106.884 5.81577 106.664 6.43166 106.664 7.27258V11.3496H105.696V4.01703H106.664V5.23452V5.23407ZM110.249 3.30734C110.112 3.44411 109.946 3.51296 109.75 3.51296C109.555 3.51296 109.388 3.44457 109.252 3.30734C109.115 3.17058 109.046 3.00424 109.046 2.8088C109.046 2.61336 109.115 2.44703 109.252 2.3098C109.388 2.17304 109.555 2.10466 109.75 2.10466C109.946 2.10466 110.112 2.17304 110.249 2.3098C110.385 2.44657 110.454 2.61289 110.454 2.8088C110.454 3.00424 110.385 3.17058 110.249 3.30734ZM109.266 11.3496V4.01703H110.234V11.3496H109.266ZM114.919 1.84636C114.206 1.78768 113.675 1.91013 113.328 2.21277C112.981 2.51587 112.807 3.01949 112.807 3.72318V4.01658H114.919V4.95544H112.807V11.3496H111.839V4.95544H110.592V4.01658H111.839V3.72318C111.839 2.76537 112.105 2.03951 112.638 1.54559C113.171 1.05166 113.932 0.839121 114.919 0.907503V1.84591L114.919 1.84636ZM119.091 4.95544H116.979V9.39889C116.979 9.79995 117.057 10.086 117.214 10.2569C117.371 10.4279 117.605 10.5161 117.918 10.5207C118.231 10.5258 118.622 10.5184 119.091 10.4986V11.3492C118.065 11.5058 117.295 11.4323 116.782 11.1292C116.268 10.8261 116.011 10.2495 116.011 9.39889V4.95544H114.471V4.01658H116.011V0.930131L116.979 0.938456V4.01703H119.091V4.95592V4.95544ZM136.615 4.01658H137.642L134.503 12.0242C134.219 12.7478 133.816 13.317 133.293 13.7329C132.77 14.1482 132.185 14.3317 131.54 14.2827V13.3734C132.418 13.4709 133.088 12.9626 133.545 11.8459L133.731 11.3741L130.455 4.01703H131.482L134.227 10.1081L136.615 4.01703V4.01658Z" fill="#065DA7"/>
<path fill-rule="evenodd" clip-rule="evenodd" d="M121.998 31.4908L127.139 25.5216C127.282 25.3567 127.533 25.3378 127.698 25.4801L128.407 26.0909C128.567 26.2286 128.59 26.4665 128.461 26.6333C126.252 29.4837 126.705 33.3237 129.176 35.8917C129.317 36.0396 129.324 36.2692 129.19 36.4245L128.611 37.0981C128.538 37.1841 128.441 37.2307 128.328 37.2358C128.214 37.2404 128.115 37.2021 128.033 37.1226C126.506 35.6214 125.532 33.849 125.263 31.3535C125.246 31.1932 125.141 31.0657 124.987 31.0176C124.833 30.9696 124.674 31.0149 124.569 31.1373L123.299 32.6122C123.157 32.7771 122.906 32.796 122.74 32.6537L122.039 32.0498C121.874 31.9075 121.856 31.6566 121.998 31.4912V31.4908ZM129.984 29.7461L131.281 30.8633C131.446 31.0056 131.697 30.9867 131.84 30.8217L132.458 30.1033C132.601 29.9383 132.582 29.687 132.417 29.5447L129.335 26.8902C129.246 26.8131 129.139 26.7816 129.022 26.7978C128.905 26.814 128.811 26.8736 128.746 26.972C126.783 29.9517 126.99 32.9129 129.477 35.4292C129.557 35.511 129.658 35.5507 129.773 35.5466C129.887 35.5424 129.985 35.4958 130.059 35.4089L130.617 34.7583C130.754 34.5994 130.743 34.3619 130.592 34.2159C129.334 32.9975 128.949 31.5689 129.341 29.9522C129.375 29.8145 129.47 29.7119 129.605 29.6689C129.741 29.6255 129.877 29.6532 129.985 29.7461H129.984Z" fill="#FE9800"/>
<path d="M20.3446 19.4676H11.4738V38.1983C11.4738 39.888 11.8023 41.0935 12.4593 41.8147C13.1164 42.5359 14.1024 42.9065 15.4164 42.9273C16.7305 42.9481 18.3735 42.9171 20.345 42.8349V46.4203C16.0328 47.0797 12.7985 46.7706 10.6426 45.493C8.48672 44.2155 7.40832 41.7837 7.40832 38.1983V19.4676H0.940186V15.5111H7.40832V8.09304L11.4743 6.85663V15.5111H20.345L20.3446 19.4676ZM38.6285 14.7695C42.3655 14.7695 45.3124 15.9131 47.4683 18.2007C49.6246 20.4878 50.7025 23.5682 50.7025 27.4424V46.4203H46.6366V27.4424C46.6366 24.6813 45.9075 22.5383 44.4497 21.0131C42.9915 19.4884 40.928 18.726 38.2588 18.726C35.3018 18.726 32.8996 19.6635 31.0515 21.5389C29.2033 23.4139 28.2792 26.309 28.2792 30.2244V46.4208H24.2132V3.14874H28.2792V20.3339C30.5792 16.6246 34.0288 14.7695 38.6285 14.7695ZM59.7465 20.6421C61.6358 16.8917 64.8798 15.0167 69.4799 15.0167V18.9732C66.6873 18.9732 64.367 19.7975 62.5188 21.446C60.6706 23.0946 59.7465 25.6908 59.7465 29.2351V46.4203H55.6806V15.5116H59.7465V20.6421ZM76.2442 8.09304C75.6694 8.67013 74.9708 8.95844 74.1498 8.95844C73.3283 8.95844 72.6301 8.67013 72.0554 8.09304C71.4806 7.51595 71.1932 6.81551 71.1932 5.99122C71.1932 5.16694 71.4806 4.46648 72.0554 3.88939C72.6301 3.3123 73.3287 3.02398 74.1498 3.02398C74.9713 3.02398 75.6694 3.3123 76.2442 3.88939C76.819 4.46601 77.1068 5.16694 77.1068 5.99122C77.1068 6.81551 76.8194 7.51595 76.2442 8.09304ZM72.1168 46.4199V15.5111H76.1827V46.4199H72.1168ZM96.3148 14.7691C100.052 14.7691 102.999 15.9126 105.155 18.2002C107.311 20.4873 108.389 23.5677 108.389 27.442V46.4199H104.323V27.442C104.323 24.6808 103.594 22.5379 102.136 21.0127C100.678 19.4879 98.6144 18.7255 95.9452 18.7255C92.9881 18.7255 90.586 19.663 88.7378 21.5385C86.8896 23.4134 85.9656 26.3086 85.9656 30.2239V46.4203H81.8996V15.5116H85.9656V20.3335C88.2656 16.6242 91.7152 14.7691 96.3148 14.7691ZM139.856 3.14734H143.922V46.4194H139.856V40.3611C137.022 44.8942 132.874 47.161 127.412 47.161C123.018 47.161 119.27 45.5951 116.17 42.4629C113.069 39.3308 111.519 35.4981 111.519 30.965C111.519 26.4319 113.069 22.5989 116.17 19.4671C119.27 16.335 123.018 14.7691 127.412 14.7691C132.874 14.7691 137.022 17.0359 139.856 21.569V3.14734ZM119.096 39.6505C121.436 42.0203 124.311 43.205 127.72 43.205C131.129 43.205 134.004 42.0198 136.344 39.6505C138.685 37.2811 139.855 34.386 139.855 30.965C139.855 27.5445 138.685 24.6494 136.344 22.2796C134.003 19.9098 131.128 18.7251 127.72 18.7251C124.311 18.7251 121.436 19.9102 119.096 22.2796C116.755 24.6489 115.584 27.5441 115.584 30.965C115.584 34.3855 116.755 37.2807 119.096 39.6505ZM149.639 46.4194V1.29272H153.705V46.4194H149.639ZM173.652 14.7686C178.211 14.7686 181.896 16.3862 184.709 19.6215C187.523 22.8567 188.929 26.6787 188.929 31.0889C188.929 31.5421 188.888 32.1807 188.806 33.005H161.763C162.173 36.1371 163.498 38.6201 165.736 40.454C167.974 42.2878 170.736 43.205 174.021 43.205C176.363 43.205 178.385 42.7208 180.089 41.7523C181.794 40.7839 183.077 39.5165 183.94 37.9506L187.513 40.0525C186.157 42.237 184.309 43.9678 181.968 45.2454C179.627 46.5229 176.958 47.1619 173.96 47.1619C169.114 47.1619 165.172 45.6372 162.133 42.5872C159.093 39.5378 157.574 35.6635 157.574 30.9655C157.574 26.3497 159.073 22.4963 162.071 19.4057C165.069 16.3151 168.929 14.7686 173.652 14.7686ZM173.652 18.7251C170.448 18.7251 167.769 19.6834 165.613 21.5995C163.456 23.516 162.173 25.999 161.763 29.0485H184.74C184.329 25.7929 183.077 23.2582 180.982 21.4451C178.888 19.6316 176.445 18.7251 173.652 18.7251Z" fill="#065DA7"/>
</svg>
